<?xml version="1.0" encoding="UTF-8"?>
<svg version="1.1" viewBox="0 0 660.57 142" xmlns="http://www.w3.org/2000/svg">
 <defs>
  <style>.background, .circle {
      fill: #14161A;
    }
    .foreground {
      fill: #FFF;
    }
    .brand {
      fill: #FF3333;
    }
    .text {
      stroke-width:2;
      stroke: #14161A;
      paint-order:markers stroke fill
    }
    .circle {
      stroke: #FFF;
      stroke-miterlimit: 10;
      stroke-width: 2;
    }</style>
 </defs>
 <path class="foreground text" d="m25.309 69.356v-48.099h-9.9978v-5.1692h27.699v5.2123h-10.299v48.056z"/>
 <path class="foreground text" d="m45.987 69.356v-53.312h7.4337v20.853h13.754v-20.853h7.4337v53.312h-7.4337v-25.381h-13.754v25.381z"/>
 <path class="foreground text" d="m81.307 69.356v-53.312h22.792v5.2123h-15.358v18.239h14.376v5.1692h-14.376v19.522h15.591v5.1692z"/>
 <path class="foreground text" d="m105.74 69.356 11.244-53.312h8.9348l11.272 53.312h-7.1941l-2.4237-13.913h-11.457l-3.1195 13.913zm11.204-19.521h9.6904l-4.983-23.909h-0.11233z"/>
 <path class="foreground text" d="m163.55 69.356v-53.312h13.274c7.5569 0.27087 13.227 3.0065 13.262 13.604-0.30596 8.34-3.7403 10.6-7.7579 11.588 5.4162 1.0256 6.9872 5.0374 7.2553 10.037 0.16801 2.3692 0.252 5.3587 0.252 8.9513v3.6012c0 0.77436 0.0466 1.5249 0.0841 2.2744 0.0372 0.74952 0.084 1.4043 0.14933 1.9815 0.0257 0.4331 0.11038 0.86149 0.25198 1.2751h-6.7198c-0.13683-0.39334-0.21532-0.80196-0.23332-1.2147-0.0653-0.6203-0.12134-1.4474-0.15866-2.4812-0.0372-1.0338-0.084-2.2572-0.10266-3.6788-0.0187-1.4215 0-3.0171 0-4.7901 6e-3 -7.909-2.052-11.206-7.6605-11.239l-5.3671 0.06394v23.34zm6.488-30.352h5.6837c4.9082 0.04004 7.1608-3.4174 6.9818-9.5372 0.10059-5.192-3.0382-8.5879-7.0533-8.4861h-5.6122z"/>
 <ellipse class="circle" cx="584.29" cy="72.062" rx="59.842" ry="60.088"/>
 <circle class="foreground" cx="585.79" cy="42.508" r="10.74"/>
 <path class="foreground" d="m593.23 53.1 24.73-24.809-14 30.978c-4.9013 9.0338-4.5939 19.717 0.82 28.5l13.451 28.622-20.821-21.286c-6.4698-5.1859-16.11-5.1859-22.58 0l-23.53 21.286 16.19-28.604c5.4139-8.783 5.7213-19.466 0.82-28.5l-16.369-30.997 27.069 24.791c4.0809 3.2431 10.129 3.251 14.22 0.0184z"/>
 <path class="foreground text" d="m233.32 69.423-6.65-53.336h12.1l3.41 33.667 3.48-33.667h11.53l3.3 33.667 3.31-33.667h12.23l-6.75 53.336h-14.84l-3.09-25.668-2.95 25.668z"/>
 <path class="foreground text" d="m294.49 69.906q-7.42 0-11.34-3.8614-3.92-3.8614-3.92-11.205v-25.297q0-6.8436 3.88-10.343t11.38-3.5511q7.49 0 11.37 3.5511 3.88 3.5511 3.89 10.386v25.289q0 7.3091-3.92 11.205-3.92 3.8959-11.34 3.8269zm0.1-9.8172c1.88 0 2.82-1.5601 2.82-4.6975v-26.03c0-2.5858-0.92-3.939-2.75-3.939q-3.09 0-3.09 4.0338v25.995a8.9 7.6711 0 0 0 0.7 3.5597 2.45 2.1117 0 0 0 2.32 1.0774z"/>
 <path class="foreground text" d="m314.74 69.423v-53.336h19c3.17 0 5.56 0.6292 7.17 1.8704a10.8 9.3087 0 0 1 3.26 5.1715 44.42 38.286 0 0 1 0.82 7.8693 21.14 18.221 0 0 1-1.28 6.9643 7.44 6.4127 0 0 1-4.84 3.6114 5.53 4.7664 0 0 1 4.1 2.4996 13 11.205 0 0 1 1.18 5.1715v20.178h-12.19v-20.876q0-2.3444-1.11-2.896a7.42 6.3954 0 0 0-3.57-0.56025v24.332zm12.58-33.572h3c1.71 0 2.57-1.6118 2.57-4.8181a12.8 11.033 0 0 0-0.56-4.0941 2.14 1.8445 0 0 0-2.11-0.96535h-2.89z"/>
 <path class="foreground text" d="m349.05 69.423v-53.336h12.23v21.367l5.77-21.367h12.45l-6.93 24.427 8.39 28.909h-12.86l-6.75-25.814v25.814z"/>
 <path class="foreground text" d="m397.74 69.906q-8.47 0-12.22-3.6373-3.75-3.6373-3.74-11.576v-5.1715h12.24v6.6282a7.11 6.1282 0 0 0 0.65 2.896 2.33 2.0083 0 0 0 2.29 1.0429 2.6 2.241 0 0 0 2.34-0.86192 6.14 5.2922 0 0 0 0.66-2.7323 17.35 14.954 0 0 0-0.56-4.1027 10.85 9.3518 0 0 0-1.95-3.1546 41.87 36.089 0 0 0-3.85-3.4994l-5.64-4.5854q-6.23-5.0595-6.22-11.576 0-6.8092 3.67-10.395t10.64-3.577q8.5 0 12.08 3.9131t3.56 11.877h-12.54v-3.6718a2.61 2.2496 0 0 0-0.72-1.7238 3.15 2.715 0 0 0-4.12 0.10343 3.26 2.8099 0 0 0-0.68 1.8359 6.71 5.7835 0 0 0 0.7 2.422 12.5 10.774 0 0 0 2.78 2.9995l7.14 5.9042a41.89 36.106 0 0 1 3.93 3.7149 18.7 16.118 0 0 1 2.89 4.5423 21.82 18.807 0 0 1 1.09 6.3868q0 7.5246-3.22 11.774t-11.2 4.2234z"/>
 <path class="foreground text" d="m416.27 69.423v-53.336h12.3v19.066h5.84v-19.066h12.3v53.336h-12.3v-24.134h-5.84v24.134z"/>
 <path class="foreground text" d="m466.96 69.906q-7.41 0-11.33-3.8614-3.92-3.8614-3.92-11.205v-25.297q0-6.8436 3.88-10.343t11.37-3.5942q7.5 0 11.38 3.5511 3.88 3.5511 3.88 10.386v25.332q0 7.3091-3.92 11.205-3.92 3.8959-11.34 3.8269zm0.11-9.8172c1.87 0 2.81-1.5601 2.81-4.6975v-26.03c0-2.5858-0.91-3.939-2.74-3.939q-3.09 0-3.09 4.0338v25.995a8.9 7.6711 0 0 0 0.7 3.5597 2.44 2.1031 0 0 0 2.32 1.0774z"/>
 <path class="foreground text" d="m487.21 69.423v-53.336h16.35a13.16 11.343 0 0 1 8.14 1.9738 12.54 10.808 0 0 1 4.31 5.6025 34.66 29.874 0 0 1 1.3 8.6968 39.28 33.856 0 0 1-1.09 8.4382 11.9 10.257 0 0 1-3.89 5.5594c-1.86 1.3101-4.5 1.9738-7.92 1.9738h-5v21.091zm12.17-30.693h0.7c2.3 0 3.7-0.56025 4.22-1.6721a16 13.791 0 0 0 0.77-4.9043 15.41 13.282 0 0 0-0.75-4.6802q-0.76-1.6549-3.57-1.6549h-1.37z"/>
 <path class="brand text" d="m247.72 129.59a14.46 12.463 0 0 1-10.76-3.6114q-4.09-3.6114-4.09-10.084v-24.608q0-7.7573 3.57-11.877 3.57-4.12 11.62-4.12a18.25 15.73 0 0 1 7.82 1.3877 12.38 10.671 0 0 1 5.39 4.1717 15.19 13.093 0 0 1 2 6.9815v9.2139h-12.3v-7.8779a7 6.0334 0 0 0-0.7-3.2322 2.53 2.1807 0 0 0-2.18-0.86192 2.3 1.9824 0 0 0-2.32 1.0774 7.7 6.6368 0 0 0-0.6 2.8616v26.719a6.49 5.5939 0 0 0 0.75 3.1201 2.53 2.1807 0 0 0 2.17 0.91364 2.31 1.991 0 0 0 2.23-1.1205 7.65 6.5937 0 0 0 0.65-2.9133v-9.5932h12.44v10.084q0 7.0333-4.11 10.196t-11.58 3.1719z"/>
 <path class="brand text" d="m282.21 129.59q-7.41 0-11.34-3.87-3.93-3.87-3.91-11.162v-25.315q0-6.8954 3.88-10.395t11.37-3.5425q7.5 0 11.38 3.5425t3.88 10.395v25.332q0 7.3005-3.92 11.162-3.92 3.8614-11.34 3.8528zm0.11-9.8173q2.81 0 2.81-4.6974v-26.03q0-3.9476-2.74-3.939c-2.06 0-3.1 1.3446-3.1 4.0252v25.97a8.88 7.6538 0 0 0 0.71 3.5597 2.46 2.1203 0 0 0 2.32 1.1119z"/>
 <path class="brand text" d="m316.77 129.59q-7.72 0-11.39-3.7494-3.67-3.7493-3.66-11.007v-39.062h12v38.631a25.67 22.125 0 0 0 0.17 2.5858 5.23 4.5078 0 0 0 0.81 2.0169 2.3 1.9824 0 0 0 2 0.79296 2.38 2.0514 0 0 0 2.08-0.77572 5 4.3096 0 0 0 0.79-2.0169 28.77 24.797 0 0 0 0.15-2.5858v-38.648h12v39.062q0 7.266-3.66 11.007-3.66 3.7407-11.29 3.7494z"/>
 <path class="brand text" d="m336.56 129.1v-53.327h12.4v44.242h12.73v9.0846z"/>
 <path class="brand text" d="m379.88 129.59q-8.48 0-12.22-3.6373t-3.7-11.576v-5.1715h12.23v6.6712a7.19 6.1972 0 0 0 0.65 2.8874 2.35 2.0255 0 0 0 2.27 1.0515 2.6 2.241 0 0 0 2.34-0.86192 6.08 5.2405 0 0 0 0.65-2.784 17 14.653 0 0 0-0.57-4.1114 10.55 9.0932 0 0 0-1.95-3.146 39.61 34.141 0 0 0-3.85-3.4994l-5.55-4.5509q-6.22-5.0853-6.22-11.619 0-6.8178 3.67-10.386 3.67-3.5684 10.63-3.577 8.52 0 12.08 3.9045t3.57 11.877h-12.63v-3.6545a2.64 2.2755 0 0 0-0.72-1.7238 3.16 2.7237 0 0 0-4.11 0.10343 3.21 2.7668 0 0 0-0.69 1.8359 6.66 5.7404 0 0 0 0.71 2.422 12.43 10.714 0 0 0 2.77 2.9995l7.14 5.9128a41 35.339 0 0 1 3.94 3.7149 18.93 16.316 0 0 1 2.88 4.5423 21.53 18.557 0 0 1 1.09 6.3179q0 7.5159-3.22 11.774t-11.19 4.2837z"/>
 <path class="brand text" d="m398.4 129.1v-53.327h17q6.68 0 10.05 3.1977t3.38 9.3432v24.996q0 7.5763-3.08 11.696t-10.79 4.0941zm12.45-9.4208h2.11c2.28 0 3.41-0.94811 3.41-2.8443v-27.521c0-1.7756-0.27-2.9219-0.82-3.4477s-1.67-0.76711-3.36-0.76711h-1.37z"/>
 <path class="brand text" d="m448.68 129.59q-7.43 0-11.34-3.87-3.91-3.87-3.92-11.162v-25.315q0-6.8954 3.88-10.395t11.38-3.5425q7.48 0 11.37 3.5425t3.91 10.395v25.332q0 7.3005-3.92 11.162-3.92 3.8614-11.36 3.8528zm0.1-9.8173q2.82 0 2.82-4.6974v-26.03q0-3.9476-2.75-3.939-3.09 0-3.09 4.0252v25.97a8.9 7.6711 0 0 0 0.7 3.5597 2.47 2.1289 0 0 0 2.32 1.1119z"/>
 <path class="brand text" d="m468.96 129.1v-53.327h12.72l5.7 25.547v-25.547h11.95v53.327h-12.12l-6.19-26.659v26.659z"/>
 <path class="foreground text" d="m193.6 69.356v-53.312h22.792v5.2123h-15.358v18.239h14.376v5.1692h-14.376v19.522h15.591v5.1692z" style="fill:#fff;paint-order:markers stroke fill;stroke-width:2.0559;stroke:#14161a"/>
 <path class="foreground text" d="m142.64 69.356v-48.099h-9.9978v-5.1692h27.699v5.2123h-10.299v48.056z" style="fill:#fff;paint-order:markers stroke fill;stroke-width:2.0559;stroke:#14161a"/>
</svg>
