<?xml version="1.0" encoding="UTF-8"?>
<svg version="1.1" viewBox="0 0 660.57 142" xmlns="http://www.w3.org/2000/svg">
 <defs>
  <style>
    .background, .circle {
      fill: #14161A;
    }
    .foreground {
      fill: #FFF;
    }
    .brand {
      fill: #FF3333;
    }
    .text {
      stroke-width:2;
      stroke: #14161A;
    }
    .circle {
      stroke: #FFF;
      stroke-miterlimit: 10;
      stroke-width: 2;
    }
  </style>
 </defs>
 <path class="foreground text" d="m11.75 67v-55.83h-6.82v-6h20.42v6.05h-6.35v55.78z"/>
 <path class="foreground text" d="m31.26 67v-61.88h7.28v26.48h9.91v-26.48h7.28v61.88h-7.28v-29.46h-9.91v29.46z"/>
 <path class="foreground text" d="m65.85 67v-61.88h18.49v6.05h-11.21v21.17h10.62v6h-10.62v22.66h11.35v6z"/>
 <path class="foreground text" d="m89.09 67 9.39-61.88h8.75l10.23 61.88h-6.85l-1.76-11.81h-11.22l-1.63 11.81zm9.35-17.72h9.49l-4.88-32.69h-0.11z"/>
 <path class="foreground text" d="m126.88 67v-55.83h-6.82v-6h20.43v6.05h-6.36v55.78z"/>
 <path class="foreground text" d="m146.39 67v-61.88h13c3.28 0 5.7 0.59 7.27 1.75a8.27 8.27 0 0 1 3.08 5.23 44.88 44.88 0 0 1 0.72 8.81 28.7 28.7 0 0 1-1.18 9.09 6.47 6.47 0 0 1-4.5 4.36 4.77 4.77 0 0 1 2.8 1.44 8.31 8.31 0 0 1 1.74 3.62 36.73 36.73 0 0 1 0.89 6.59c0.18 2.75 0.27 6.22 0.27 10.39v1.72q0 1.13 0 2.46c0 0.89 0.05 1.77 0.09 2.64s0.09 1.63 0.16 2.3a6 6 0 0 0 0.27 1.48h-7.2a5.31 5.31 0 0 1-0.25-1.41c-0.07-0.72-0.13-1.68-0.17-2.88s-0.09-2.62-0.11-4.27 0-3.5 0-5.56v-6.73a37.61 37.61 0 0 0-0.29-5.36 3.58 3.58 0 0 0-1.41-2.57 7.58 7.58 0 0 0-3.53-0.86l-4.33-0.24v29.88zm7.28-35.23h4.64a5.12 5.12 0 0 0 3.08-0.79 4.77 4.77 0 0 0 1.46-3.16 48 48 0 0 0 0.38-7.12v-0.42a36.64 36.64 0 0 0-0.36-6 4 4 0 0 0-1.43-2.73 5.82 5.82 0 0 0-3.2-0.7h-4.57z"/>
 <path class="foreground text" d="m179.41 67v-61.88h18.49v6.05h-11.22v21.17h10.62v6h-10.62v22.66h11.32v6z"/>
 <path class="foreground text" d="m225.36 67-6.65-61.88h12.1l3.41 39.06 3.48-39.06h11.53l3.3 39.06 3.31-39.06h12.23l-6.75 61.88h-14.84l-3.09-29.78-2.95 29.78z"/>
 <path class="foreground text" d="m286.53 67.56q-7.42 0-11.34-4.48t-3.92-13v-29.35q0-7.94 3.88-12t11.38-4.12q7.49 0 11.37 4.12t3.89 12.05v29.34q0 8.48-3.92 13t-11.34 4.44zm0.1-11.39c1.88 0 2.82-1.81 2.82-5.45v-30.2c0-3-0.92-4.57-2.75-4.57q-3.09 0-3.09 4.68v30.16a8.9 8.9 0 0 0 0.7 4.13 2.45 2.45 0 0 0 2.32 1.25z"/>
 <path class="foreground text" d="m306.78 67v-61.88h19c3.17 0 5.56 0.73 7.17 2.17a10.8 10.8 0 0 1 3.26 6 44.42 44.42 0 0 1 0.82 9.13 21.14 21.14 0 0 1-1.28 8.08 7.44 7.44 0 0 1-4.84 4.19 5.53 5.53 0 0 1 4.1 2.9 13 13 0 0 1 1.18 6v23.41h-12.19v-24.22q0-2.72-1.11-3.36a7.42 7.42 0 0 0-3.57-0.65v28.23zm12.58-38.95h3c1.71 0 2.57-1.87 2.57-5.59a12.8 12.8 0 0 0-0.56-4.75 2.14 2.14 0 0 0-2.11-1.12h-2.89z"/>
 <path class="foreground text" d="m341.09 67v-61.88h12.23v24.79l5.77-24.79h12.45l-6.93 28.34 8.39 33.54h-12.86l-6.75-29.95v29.95z"/>
 <path class="foreground text" d="m389.78 67.56q-8.47 0-12.22-4.22t-3.74-13.43v-6h12.24v7.69a7.11 7.11 0 0 0 0.65 3.36 2.33 2.33 0 0 0 2.29 1.21 2.6 2.6 0 0 0 2.34-1 6.14 6.14 0 0 0 0.66-3.17 17.35 17.35 0 0 0-0.56-4.76 10.85 10.85 0 0 0-1.95-3.66 41.87 41.87 0 0 0-3.85-4.06l-5.64-5.32q-6.23-5.87-6.22-13.43 0-7.9 3.67-12.06t10.64-4.15q8.5 0 12.08 4.54t3.56 13.78h-12.54v-4.26a2.61 2.61 0 0 0-0.72-2 3.15 3.15 0 0 0-4.12 0.12 3.26 3.26 0 0 0-0.68 2.13 6.71 6.71 0 0 0 0.7 2.81 12.5 12.5 0 0 0 2.78 3.48l7.14 6.85a41.89 41.89 0 0 1 3.93 4.31 18.7 18.7 0 0 1 2.89 5.27 21.82 21.82 0 0 1 1.09 7.41q0 8.73-3.22 13.66t-11.2 4.9z"/>
 <path class="foreground text" d="m408.31 67v-61.88h12.3v22.12h5.84v-22.12h12.3v61.88h-12.3v-28h-5.84v28z"/>
 <path class="foreground text" d="m459 67.56q-7.41 0-11.33-4.48t-3.92-13v-29.35q0-7.94 3.88-12t11.37-4.17q7.5 0 11.38 4.12t3.88 12.05v29.39q0 8.48-3.92 13t-11.34 4.44zm0.11-11.39c1.87 0 2.81-1.81 2.81-5.45v-30.2c0-3-0.91-4.57-2.74-4.57q-3.09 0-3.09 4.68v30.16a8.9 8.9 0 0 0 0.7 4.13 2.44 2.44 0 0 0 2.32 1.25z"/>
 <path class="foreground text" d="m479.25 67v-61.88h16.35a13.16 13.16 0 0 1 8.14 2.29 12.54 12.54 0 0 1 4.31 6.5 34.66 34.66 0 0 1 1.3 10.09 39.28 39.28 0 0 1-1.09 9.79 11.9 11.9 0 0 1-3.89 6.45c-1.86 1.52-4.5 2.29-7.92 2.29h-5v24.47zm12.17-35.61h0.7c2.3 0 3.7-0.65 4.22-1.94a16 16 0 0 0 0.77-5.69 15.41 15.41 0 0 0-0.75-5.43q-0.76-1.92-3.57-1.92h-1.37z"/>
 <path class="brand text" d="m239.76 136.81a14.46 14.46 0 0 1-10.76-4.19q-4.09-4.19-4.09-11.7v-28.55q0-9 3.57-13.78t11.62-4.78a18.25 18.25 0 0 1 7.82 1.61 12.38 12.38 0 0 1 5.39 4.84 15.19 15.19 0 0 1 2 8.1v10.69h-12.3v-9.14a7 7 0 0 0-0.7-3.75 2.53 2.53 0 0 0-2.18-1 2.3 2.3 0 0 0-2.32 1.25 7.7 7.7 0 0 0-0.6 3.32v31a6.49 6.49 0 0 0 0.75 3.62 2.53 2.53 0 0 0 2.17 1.06 2.31 2.31 0 0 0 2.23-1.3 7.65 7.65 0 0 0 0.65-3.38v-11.13h12.44v11.7q0 8.16-4.11 11.83t-11.58 3.68z"/>
 <path class="brand text" d="m274.25 136.81q-7.41 0-11.34-4.49t-3.91-12.95v-29.37q0-8 3.88-12.06t11.37-4.11q7.5 0 11.38 4.11t3.88 12.06v29.39q0 8.47-3.92 12.95t-11.34 4.47zm0.11-11.39q2.81 0 2.81-5.45v-30.2q0-4.58-2.74-4.57c-2.06 0-3.1 1.56-3.1 4.67v30.13a8.88 8.88 0 0 0 0.71 4.13 2.46 2.46 0 0 0 2.32 1.29z"/>
 <path class="brand text" d="m308.81 136.81q-7.72 0-11.39-4.35t-3.66-12.77v-45.32h12v44.82a25.67 25.67 0 0 0 0.17 3 5.23 5.23 0 0 0 0.81 2.34 2.3 2.3 0 0 0 2 0.92 2.38 2.38 0 0 0 2.08-0.9 5 5 0 0 0 0.79-2.34 28.77 28.77 0 0 0 0.15-3v-44.84h12v45.32q0 8.43-3.66 12.77t-11.29 4.35z"/>
 <path class="brand text" d="m328.6 136.24v-61.87h12.4v51.33h12.73v10.54z"/>
 <path class="brand text" d="m371.92 136.81q-8.48 0-12.22-4.22t-3.7-13.43v-6h12.23v7.74a7.19 7.19 0 0 0 0.65 3.35 2.35 2.35 0 0 0 2.27 1.22 2.6 2.6 0 0 0 2.34-1 6.08 6.08 0 0 0 0.65-3.23 17 17 0 0 0-0.57-4.77 10.55 10.55 0 0 0-1.95-3.65 39.61 39.61 0 0 0-3.85-4.06l-5.55-5.28q-6.22-5.9-6.22-13.48 0-7.91 3.67-12.05t10.63-4.15q8.52 0 12.08 4.53t3.57 13.78h-12.63v-4.24a2.64 2.64 0 0 0-0.72-2 3.16 3.16 0 0 0-4.11 0.12 3.21 3.21 0 0 0-0.69 2.13 6.66 6.66 0 0 0 0.71 2.81 12.43 12.43 0 0 0 2.77 3.48l7.14 6.86a41 41 0 0 1 3.94 4.31 18.93 18.93 0 0 1 2.88 5.27 21.53 21.53 0 0 1 1.09 7.33q0 8.72-3.22 13.66t-11.19 4.97z"/>
 <path class="brand text" d="m390.44 136.24v-61.87h17q6.68 0 10.05 3.71t3.38 10.84v29q0 8.79-3.08 13.57t-10.79 4.75zm12.45-10.93h2.11c2.28 0 3.41-1.1 3.41-3.3v-31.93c0-2.06-0.27-3.39-0.82-4s-1.67-0.89-3.36-0.89h-1.37z"/>
 <path class="brand text" d="m440.72 136.81q-7.43 0-11.34-4.49t-3.92-12.95v-29.37q0-8 3.88-12.06t11.38-4.11q7.48 0 11.37 4.11t3.91 12.06v29.39q0 8.47-3.92 12.95t-11.36 4.47zm0.1-11.39q2.82 0 2.82-5.45v-30.2q0-4.58-2.75-4.57-3.09 0-3.09 4.67v30.13a8.9 8.9 0 0 0 0.7 4.13 2.47 2.47 0 0 0 2.32 1.29z"/>
 <path class="brand text" d="m461 136.24v-61.87h12.72l5.7 29.64v-29.64h11.95v61.87h-12.12l-6.19-30.93v30.93z"/>
 <circle class="circle" cx="584.16" cy="71" r="66.27"/>
 <circle class="foreground" cx="584.16" cy="38.21" r="10.74"/>
 <path class="foreground" d="m591.27 50.38 24.73-21.38-14 28.09a33 33 0 0 0 0.82 31l16.18 28.52-23.55-20.54a17.18 17.18 0 0 0-22.58 0l-23.53 20.54 16.19-28.5a33 33 0 0 0 0.82-31l-14.04-28.11 24.74 21.36a10.89 10.89 0 0 0 14.22 0.02z"/>
</svg>
