<?xml version="1.0" encoding="UTF-8"?>
<svg width="210mm" height="210mm" version="1.1" viewBox="0 0 210 210" xmlns="http://www.w3.org/2000/svg">
 <path d="m15.378 15.378v179.24h179.24v-179.24zm47.55 11.477h84.145c7.4059 0 13.368 5.9623 13.368 13.368v41.792c0 7.4059-5.9618 13.368-13.368 13.368h-84.145c-7.4059 0-13.368-5.9623-13.368-13.368v-41.792c0-7.4059 5.9618-13.368 13.368-13.368zm-41.822 1.6733h22.335c0.37106 0 0.66972 0.29867 0.66972 0.66973v22.335c0 0.37106-0.29866 0.66973-0.66972 0.66973h-22.335c-0.37105 0-0.66972-0.29867-0.66972-0.66973v-22.335c0-0.37106 0.29867-0.66973 0.66972-0.66973zm145.07 0h22.334c0.37106 0 0.66973 0.29867 0.66973 0.66973v22.335c0 0.37106-0.29867 0.66973-0.66973 0.66973h-22.334c-0.37106 0-0.66972-0.29867-0.66972-0.66973v-22.335c0-0.37106 0.29867-0.66973 0.66971-0.66973zm-145.07 43.906h22.335c0.37106 0 0.66972 0.29919 0.66972 0.67024v22.334c0 0.37106-0.29866 0.66973-0.66972 0.66973h-22.335c-0.37105 0-0.66972-0.29867-0.66972-0.66973v-22.334c0-0.37105 0.29867-0.67024 0.66972-0.67024zm145.07 0h22.334c0.37106 0 0.66973 0.29919 0.66973 0.67024v22.334c0 0.37106-0.29867 0.66973-0.66973 0.66973h-22.334c-0.37106 0-0.66972-0.29867-0.66972-0.66973v-22.334c0-0.37105 0.29867-0.67024 0.66971-0.67024zm-145.07 43.906h22.335c0.37106 0 0.66972 0.29918 0.66972 0.67024v22.334c0 0.37106-0.29866 0.66972-0.66972 0.66972h-22.335c-0.37105 0-0.66972-0.29866-0.66972-0.66972v-22.334c0-0.37106 0.29867-0.67024 0.66972-0.67024zm145.07 0h22.334c0.37106 0 0.66973 0.29918 0.66973 0.67024v22.334c0 0.37106-0.29867 0.66972-0.66973 0.66972h-22.334c-0.37106 0-0.66972-0.29866-0.66972-0.66972v-22.334c0-0.37106 0.29867-0.67024 0.66971-0.67024zm-103.24 0.28732h84.145c7.4059 0 13.368 5.9623 13.368 13.368v41.792c0 7.4059-5.9618 13.368-13.368 13.368h-84.145c-7.4059 0-13.368-5.9623-13.368-13.368v-41.792c0-7.4059 5.9618-13.368 13.368-13.368zm-41.822 43.619h22.335c0.37106 0 0.66972 0.29866 0.66972 0.66972v22.335c0 0.37105-0.29866 0.66972-0.66972 0.66972h-22.335c-0.37105 0-0.66972-0.29867-0.66972-0.66972v-22.335c0-0.37106 0.29867-0.66972 0.66972-0.66972zm145.07 0h22.334c0.37106 0 0.66973 0.29918 0.66973 0.67024v22.334c0 0.37105-0.29867 0.66972-0.66973 0.66972h-22.334c-0.37106 0-0.66972-0.29867-0.66972-0.66972v-22.334c0-0.37106 0.29867-0.67024 0.66971-0.67024z" style="paint-order:fill markers stroke"/>
</svg>
