<?xml version="1.0" encoding="UTF-8" standalone="no"?>
<svg
   xmlns:dc="http://purl.org/dc/elements/1.1/"
   xmlns:cc="http://creativecommons.org/ns#"
   xmlns:rdf="http://www.w3.org/1999/02/22-rdf-syntax-ns#"
   xmlns:svg="http://www.w3.org/2000/svg"
   xmlns="http://www.w3.org/2000/svg"
   xmlns:sodipodi="http://sodipodi.sourceforge.net/DTD/sodipodi-0.dtd"
   xmlns:inkscape="http://www.inkscape.org/namespaces/inkscape"
   width="32"
   height="32"
   viewBox="0 0 32 32"
   version="1.1"
   id="svg839"
   inkscape:version="1.0.2 (394de47547, 2021-03-26)"
   sodipodi:docname="header-icons.svg">
  <defs
     id="defs833" />
  <sodipodi:namedview
     id="base"
     pagecolor="#ffffff"
     bordercolor="#666666"
     borderopacity="1.0"
     inkscape:pageopacity="0.0"
     inkscape:pageshadow="2"
     inkscape:zoom="22.4"
     inkscape:cx="16.982806"
     inkscape:cy="12.721776"
     inkscape:document-units="px"
     inkscape:current-layer="g1105"
     inkscape:document-rotation="0"
     showgrid="false"
     units="mm"
     showguides="true"
     inkscape:guide-bbox="true"
     inkscape:window-width="1528"
     inkscape:window-height="1332"
     inkscape:window-x="1437"
     inkscape:window-y="36"
     inkscape:window-maximized="0">
    <sodipodi:guide
       position="-5.0081844,17.859376"
       orientation="1,0"
       id="guide1509" />
  </sodipodi:namedview>
  <metadata
     id="metadata836">
    <rdf:RDF>
      <cc:Work
         rdf:about="">
        <dc:format>image/svg+xml</dc:format>
        <dc:type
           rdf:resource="http://purl.org/dc/dcmitype/StillImage" />
        <dc:title></dc:title>
      </cc:Work>
    </rdf:RDF>
  </metadata>
  <g
     inkscape:label="user"
     inkscape:groupmode="layer"
     id="layer1"
     sodipodi:insensitive="true"
     style="display:none">
    <ellipse
       style="fill:#000000;fill-opacity:1;stroke:#feffff;stroke-width:0.263143;stroke-miterlimit:4;stroke-dasharray:none;stroke-opacity:1;paint-order:fill markers stroke"
       id="path1402"
       cx="-16.536459"
       cy="-16.536457"
       transform="scale(-1)"
       rx="16.404888"
       ry="16.404886"
       inkscape:label="background" />
    <circle
       style="fill:#fffffe;fill-opacity:1;stroke:none;stroke-width:0.264583;stroke-miterlimit:4;stroke-dasharray:none;stroke-opacity:1;paint-order:fill markers stroke"
       id="path1404"
       cx="16.536459"
       cy="12.79459"
       r="6.9769297"
       inkscape:label="head" />
    <path
       id="path1404-3"
       style="fill:#ffffff;fill-opacity:1;stroke:none;stroke-width:0.264583;stroke-miterlimit:4;stroke-dasharray:none;stroke-opacity:1;paint-order:fill markers stroke"
       d="m 5.0352177,28.200325 c 1.9139161,-4.741223 6.4324003,-7.842173 11.4548003,-7.861213 5.0224,-0.01904 9.563311,3.047567 11.511654,7.774148 0,0 -3.71733,4.721892 -11.439758,4.725631 C 8.8394861,32.84263 5.0352177,28.200325 5.0352177,28.200325 Z"
       sodipodi:nodetypes="csczc"
       inkscape:label="body" />
  </g>
  <g
     inkscape:groupmode="layer"
     id="layer2"
     inkscape:label="user 1"
     style="display:none">
    <path
       style="display:none;fill:#fffffe;fill-opacity:1;stroke:#000000;stroke-width:1;stroke-miterlimit:4;stroke-dasharray:none;stroke-opacity:1;paint-order:fill markers stroke"
       id="circle1890-6"
       inkscape:label="body"
       sodipodi:type="arc"
       sodipodi:cx="16.000071"
       sodipodi:cy="30.166044"
       sodipodi:rx="12.605216"
       sodipodi:ry="12.605216"
       sodipodi:start="3.1418746"
       sodipodi:end="0"
       sodipodi:arc-type="slice"
       d="M 3.394855,30.16249 A 12.605216,12.605216 0 0 1 16.001848,17.560828 12.605216,12.605216 0 0 1 28.605287,30.166044 H 16.000071 Z" />
    <circle
       style="display:none;fill:#fffffe;fill-opacity:1;stroke:#000000;stroke-width:1;stroke-miterlimit:4;stroke-dasharray:none;stroke-opacity:1;paint-order:fill markers stroke"
       id="circle1890"
       cx="16"
       cy="11.576845"
       r="6.9769297"
       inkscape:label="head" />
  </g>
  <g
     inkscape:label="ticket"
     inkscape:groupmode="layer"
     id="g1564"
     style="display:none;opacity:1">
    <path
       id="rect1566"
       style="display:inline;fill:#ffffff;fill-opacity:1;stroke:#000000;stroke-width:0.319448;stroke-miterlimit:4;stroke-dasharray:none;stroke-opacity:1;paint-order:fill markers stroke"
       d="m 1.5509229,5.2244706 v 6.2836974 c 0.00909,-4e-4 0.018242,-6.68e-4 0.027335,-8.89e-4 1.5602947,-9.7e-5 2.8251776,2.011412 2.8251174,4.4927 6.02e-5,2.481289 -1.2648228,4.492796 -2.8251174,4.4927 -0.00909,7e-5 -0.018213,7e-5 -0.027335,0 V 26.77553 H 30.449077 V 20.4927 c -0.0091,7e-5 -0.01821,7e-5 -0.02733,0 -1.560293,9.7e-5 -2.825177,-2.011411 -2.825116,-4.4927 -6.1e-5,-2.481289 1.264823,-4.492797 2.825116,-4.4927 0.0091,2.2e-4 0.01822,4.68e-4 0.02733,8.68e-4 V 5.2244706 Z"
       sodipodi:nodetypes="ccccccccccccccc"
       inkscape:label="ticket" />
    <path
       style="display:inline;fill:none;stroke:#000000;stroke-width:1.05833;stroke-linecap:round;stroke-linejoin:miter;stroke-miterlimit:4;stroke-dasharray:2.11666, 2.11666;stroke-dashoffset:2.64583;stroke-opacity:1"
       d="M 24,9.1704112 V 22.829589"
       id="path1576"
       inkscape:label="cut"
       sodipodi:nodetypes="cc" />
    <text
       xml:space="preserve"
       style="font-size:10.5833px;line-height:1.25;font-family:Antonio;-inkscape-font-specification:Antonio;display:inline;fill:#ff0000;stroke:#ffffff;stroke-width:0.264583;stroke-miterlimit:4;stroke-dasharray:none;stroke-opacity:1"
       x="14.038757"
       y="20.547512"
       id="text1668"
       inkscape:label="item-count"><tspan
         sodipodi:role="line"
         id="tspan1666"
         x="14.038757"
         y="20.547512"
         style="font-style:normal;font-variant:normal;font-weight:normal;font-stretch:normal;font-family:Anton;-inkscape-font-specification:Anton;text-align:center;text-anchor:middle;fill:#ff0000;stroke:#ffffff;stroke-width:0.264583;stroke-miterlimit:4;stroke-dasharray:none;stroke-opacity:1">100</tspan></text>
  </g>
  <g
     inkscape:label="ticket copy"
     inkscape:groupmode="layer"
     id="g875"
     style="display:none">
    <path
       id="path867-3"
       style="display:inline;fill:#ffffff;fill-opacity:1;stroke:#000000;stroke-width:0.319448;stroke-miterlimit:4;stroke-dasharray:none;stroke-opacity:1;paint-order:fill markers stroke"
       d="m 3.1395726,17.454936 2.794018,2.794018 c 0.0055,-0.0059 0.01126,-0.01185 0.01692,-0.01771 0.988448,-0.988535 2.684195,-0.895466 3.787451,0.207866 1.1033314,1.103255 1.1963994,2.799002 0.207866,3.787451 -0.0057,0.0058 -0.01151,0.01157 -0.01732,0.01732 L 12.722148,27.037522 28.860427,10.841824 26.066795,8.0481934 c -0.0058,0.0058 -0.01151,0.01157 -0.01732,0.01732 -0.988444,0.98853 -2.684193,0.895463 -3.787447,-0.20787 -1.103333,-1.103254 -1.1964,-2.799003 -0.207867,-3.78745 0.0059,-0.0057 0.01175,-0.01133 0.0177,-0.01693 l -2.794007,-2.794026 z"
       sodipodi:nodetypes="ccccccccccccccc"
       inkscape:label="ticket" />
    <path
       id="path867"
       style="display:inline;fill:#ffffff;fill-opacity:1;stroke:#000000;stroke-width:0.319448;stroke-miterlimit:4;stroke-dasharray:none;stroke-opacity:1;paint-order:fill markers stroke"
       d="m 3.0544241,16.317586 v 3.951338 c 0.00814,-2.52e-4 0.016344,-4.2e-4 0.024491,-5.59e-4 1.3979378,-6.1e-5 2.5312029,1.264823 2.531149,2.825116 5.39e-5,1.560293 -1.1332113,2.825176 -2.531149,2.825116 -0.00814,4.4e-5 -0.016318,4.4e-5 -0.024491,0 v 3.950805 H 28.945572 V 25.91861 c -0.0082,4.4e-5 -0.01632,4.4e-5 -0.02449,0 -1.397932,6.1e-5 -2.531199,-1.264823 -2.531144,-2.825116 -5.5e-5,-1.560293 1.133212,-2.825177 2.531148,-2.825116 0.0082,1.38e-4 0.01632,2.94e-4 0.02449,5.46e-4 v -3.951338 z"
       sodipodi:nodetypes="ccccccccccccccc"
       inkscape:label="ticket" />
    <path
       style="display:inline;fill:none;stroke:#000000;stroke-width:1.05833;stroke-linecap:round;stroke-linejoin:miter;stroke-miterlimit:4;stroke-dasharray:2.11666, 2.11666;stroke-dashoffset:2.64583;stroke-opacity:1"
       d="M 24,16.263905 V 29.923083"
       id="path869"
       inkscape:label="cut"
       sodipodi:nodetypes="cc" />
    <text
       xml:space="preserve"
       style="font-size:10.5833px;line-height:1.25;font-family:Antonio;-inkscape-font-specification:Antonio;display:inline;fill:#ff0000;stroke:#ffffff;stroke-width:0.264583;stroke-miterlimit:4;stroke-dasharray:none;stroke-opacity:1"
       x="14.038757"
       y="27.641006"
       id="text873"
       inkscape:label="item-count"><tspan
         sodipodi:role="line"
         id="tspan871"
         x="14.038757"
         y="27.641006"
         style="font-style:normal;font-variant:normal;font-weight:normal;font-stretch:normal;font-family:Anton;-inkscape-font-specification:Anton;text-align:center;text-anchor:middle;fill:#ff0000;stroke:#ffffff;stroke-width:0.264583;stroke-miterlimit:4;stroke-dasharray:none;stroke-opacity:1">100</tspan></text>
    <path
       style="display:inline;fill:none;stroke:#000000;stroke-width:1.05833;stroke-linecap:round;stroke-linejoin:miter;stroke-miterlimit:4;stroke-dasharray:2.11666, 2.11666;stroke-dashoffset:2.64583;stroke-opacity:1"
       d="m 15.760076,4.7391529 9.658498,9.6584981"
       id="path869-7"
       inkscape:label="cut"
       sodipodi:nodetypes="cc" />
  </g>
  <g
     inkscape:label="ticket copy copy"
     inkscape:groupmode="layer"
     id="g1105"
     style="display:inline">
    <path
       id="path1095"
       style="display:inline;fill:#ffffff;fill-opacity:1;stroke:#000000;stroke-width:0.326892;stroke-miterlimit:4;stroke-dasharray:none;stroke-opacity:1;paint-order:fill markers stroke"
       d="m 1.7311791,20.46731 2.858859,2.859395 c 0.00571,-0.006 0.011522,-0.01213 0.017315,-0.01813 1.0113872,-1.011665 2.746488,-0.916419 3.875347,0.21273 1.1289372,1.129071 1.2241647,2.864496 0.2126901,3.876073 -0.00585,0.0059 -0.011774,0.01184 -0.01772,0.01773 l 2.8584728,2.85901 18.732678,-18.736189 -2.858464,-2.8590004 c -0.0059,0.00594 -0.01178,0.011841 -0.01773,0.017725 C 26.381252,9.7083143 24.646151,9.6130697 23.517292,8.4839199 22.388354,7.354851 22.293127,5.6194233 23.304601,4.6078478 c 0.006,-0.00583 0.01203,-0.011595 0.01811,-0.017326 L 20.46386,1.7311175 Z"
       sodipodi:nodetypes="ccccccccccccccc"
       inkscape:label="ticket" />
    <path
       style="display:inline;fill:none;stroke:#000000;stroke-width:1.05833;stroke-linecap:round;stroke-linejoin:miter;stroke-miterlimit:4;stroke-dasharray:2.11666, 2.11666;stroke-dashoffset:2.64583;stroke-opacity:1"
       d="m 17.027534,5.2995331 9.658498,9.6584979"
       id="path1097"
       inkscape:label="cut"
       sodipodi:nodetypes="cc" />
  </g>
  <g
     inkscape:groupmode="layer"
     id="layer3"
     inkscape:label="basket"
     style="display:none"
     sodipodi:insensitive="true">
    <path
       id="rect859"
       style="fill:#ffffff;stroke:#000000;stroke-linecap:round;stroke-dashoffset:2.645;paint-order:fill markers stroke"
       d="M 1.8585554,14.578159 H 30.141445 L 27.752532,29.633736 H 4.2474678 Z"
       sodipodi:nodetypes="ccccc"
       inkscape:label="basket" />
    <text
       xml:space="preserve"
       style="font-size:10.5833px;line-height:1.25;font-family:Antonio;-inkscape-font-specification:Antonio;display:inline;fill:#ff0000;stroke:#ffffff;stroke-width:0.264583;stroke-miterlimit:4;stroke-dasharray:none;stroke-opacity:1"
       x="16.038757"
       y="23.676109"
       id="text855"
       inkscape:label="item-count"><tspan
         sodipodi:role="line"
         id="tspan853"
         x="16.038757"
         y="23.676109"
         style="font-style:normal;font-variant:normal;font-weight:normal;font-stretch:normal;font-family:Anton;-inkscape-font-specification:Anton;text-align:center;text-anchor:middle;fill:#ff0000;stroke:#ffffff;stroke-width:0.264583;stroke-miterlimit:4;stroke-dasharray:none;stroke-opacity:1">100</tspan></text>
  </g>
</svg>
