<?xml version="1.0" encoding="UTF-8"?>
<svg version="1.1" viewBox="0 0 32 32" xmlns="http://www.w3.org/2000/svg">
 <g>
  <path d="m1.7312 20.467 2.8589 2.8594c0.00571-6e-3 0.011522-0.01213 0.017315-0.01813 1.0114-1.0117 2.7465-0.91642 3.8753 0.21273 1.1289 1.1291 1.2242 2.8645 0.21269 3.8761-0.00585 0.0059-0.011774 0.01184-0.01772 0.01773l2.8585 2.859 18.733-18.736-2.8585-2.859c-0.0059 0.00594-0.01178 0.011841-0.01773 0.017725-1.0114 1.0117-2.7465 0.91642-3.8753-0.21273-1.1289-1.1291-1.2242-2.8645-0.21269-3.8761 6e-3 -0.00583 0.01203-0.011595 0.01811-0.017326l-2.8589-2.8594z" style="fill:#fff;paint-order:fill markers stroke;stroke-width:.32689;stroke:#000"/>
  <path d="m17.028 5.2995 9.6585 9.6585" style="fill:none;stroke-dasharray:2.11666, 2.11666;stroke-dashoffset:2.6458;stroke-linecap:round;stroke-width:1.0583;stroke:#000"/>
 </g>
</svg>
