<?xml version="1.0" encoding="UTF-8" standalone="no"?>
<svg
   xmlns:dc="http://purl.org/dc/elements/1.1/"
   xmlns:cc="http://creativecommons.org/ns#"
   xmlns:rdf="http://www.w3.org/1999/02/22-rdf-syntax-ns#"
   xmlns:svg="http://www.w3.org/2000/svg"
   xmlns="http://www.w3.org/2000/svg"
   xmlns:sodipodi="http://sodipodi.sourceforge.net/DTD/sodipodi-0.dtd"
   xmlns:inkscape="http://www.inkscape.org/namespaces/inkscape"
   version="1.1"
   viewBox="0 0 660.57 142"
   id="svg58"
   sodipodi:docname="twc-title.svg"
   inkscape:version="1.0.2 (394de47547, 2021-03-26)">
  <sodipodi:namedview
     pagecolor="#ffffff"
     bordercolor="#666666"
     borderopacity="1"
     objecttolerance="10"
     gridtolerance="10"
     guidetolerance="10"
     inkscape:pageopacity="0"
     inkscape:pageshadow="2"
     inkscape:window-width="3440"
     inkscape:window-height="1376"
     id="namedview33"
     showgrid="false"
     inkscape:zoom="3.9571885"
     inkscape:cx="328.53107"
     inkscape:cy="73.122999"
     inkscape:window-x="0"
     inkscape:window-y="27"
     inkscape:window-maximized="1"
     inkscape:current-layer="layer3"
     inkscape:document-rotation="0" />
  <metadata
     id="metadata62">
    <rdf:RDF>
      <cc:Work
         rdf:about="">
        <dc:format>image/svg+xml</dc:format>
        <dc:type
           rdf:resource="http://purl.org/dc/dcmitype/StillImage" />
        <dc:title />
      </cc:Work>
    </rdf:RDF>
  </metadata>
  <defs
     id="defs4">
    <style
       id="style2">
    .background, .circle {
      fill: #14161A;
    }
    .foreground {
      fill: #FFF;
    }
    .brand {
      fill: #FF3333;
    }
    .text {
      stroke-width:2;
      stroke: #14161A;
      paint-order:markers stroke fill
    }
    .circle {
      stroke: #FFF;
      stroke-miterlimit: 10;
      stroke-width: 2;
    }
  </style>
  </defs>
  <g
     id="layer3">
    <path
       class="foreground text"
       d="M 25.309057,69.355512 V 21.256191 H 15.311296 V 16.08699 h 27.699495 v 5.212279 H 32.712129 v 48.056243 z"
       id="path6-2" />
    <path
       class="foreground text"
       d="m 45.987154,69.355512 v -53.3116 h 7.433708 V 36.896515 H 67.17521 V 16.043912 h 7.433707 v 53.3116 H 67.17521 V 43.974791 H 53.420862 v 25.380721 z"
       id="path8-1" />
    <path
       class="foreground text"
       d="m 81.30747,69.355512 v -53.3116 h 22.79189 v 5.212279 H 88.741176 V 39.494822 H 103.1175 v 5.169192 H 88.741176 v 19.522309 h 15.591164 v 5.169189 z"
       id="path10-5" />
    <path
       class="foreground text"
       d="m 105.73676,69.355512 11.2445,-53.3116 h 8.93476 l 11.272,53.3116 h -7.19407 l -2.42372,-13.913056 h -11.4569 l -3.11949,13.913056 z m 11.20367,-19.520617 h 9.69037 l -4.98304,-23.909201 h -0.11233 z"
       id="path12-6" />
    <path
       class="foreground text"
       d="m 163.54794,69.355512 v -53.3116 h 13.27447 c 7.55687,0.270871 13.22732,3.006539 13.26167,13.603592 -0.30596,8.339965 -3.74029,10.599685 -7.75786,11.587605 5.41618,1.025555 6.98718,5.037387 7.25533,10.036853 0.16801,2.369217 0.252,5.358727 0.252,8.951316 v 1.481835 2.119377 c 0,0.774361 0.0466,1.524901 0.0841,2.274438 0.0372,0.749525 0.084,1.404304 0.14933,1.981522 0.0257,0.433095 0.11038,0.861488 0.25198,1.275062 h -6.71978 c -0.13683,-0.393336 -0.21532,-0.801965 -0.23332,-1.214748 -0.0653,-0.620305 -0.12134,-1.447382 -0.15866,-2.481209 -0.0372,-1.033849 -0.084,-2.257222 -0.10266,-3.678753 -0.0187,-1.421522 0,-3.017095 0,-4.790122 0.006,-7.909038 -2.05203,-11.20563 -7.66051,-11.239006 l -5.36712,0.06394 v 23.339932 z m 6.488,-30.351775 h 5.68368 c 4.9082,0.04004 7.16085,-3.41738 6.98182,-9.537155 0.10059,-5.191986 -3.0382,-8.587879 -7.05329,-8.486091 h -5.61221 z"
       id="path16-0"
       sodipodi:nodetypes="ccccccscsccccccsccccccccccc" />
    <ellipse
       class="circle"
       cx="584.28772"
       cy="72.062119"
       id="circle52"
       rx="59.841957"
       ry="60.087719" />
    <circle
       class="foreground"
       cx="585.7934"
       cy="42.507896"
       r="10.74"
       id="circle54"
       style="display:inline;opacity:1" />
    <path
       class="foreground"
       d="m 593.22929,53.09972 24.73,-24.80944 -14,30.97837 c -4.90132,9.03383 -4.59394,19.71727 0.82,28.50025 l 13.45053,28.62213 -20.82053,-21.28562 c -6.46983,-5.18588 -16.11017,-5.18588 -22.58,0 l -23.53,21.28562 16.19,-28.60375 c 5.41393,-8.78298 5.72131,-19.46641 0.82,-28.50024 l -16.36941,-30.99676 27.06941,24.79106 c 4.08086,3.24312 10.12922,3.25095 14.22,0.0184 z"
       id="path56" />
    <path
       class="foreground text"
       d="m 233.31636,69.42303 -6.65,-53.33554 h 12.1 l 3.41,33.66655 3.48,-33.66655 h 11.53 l 3.3,33.66655 3.31,-33.66655 h 12.23 l -6.75,53.33554 h -14.84 l -3.09,-25.66794 -2.95,25.66794 z"
       id="path20" />
    <path
       class="foreground text"
       d="m 294.48636,69.9057 q -7.42,0 -11.34,-3.86139 -3.92,-3.8614 -3.92,-11.20495 V 29.54204 q 0,-6.84363 3.88,-10.34302 3.88,-3.49939 11.38,-3.55111 7.49,0 11.37,3.55111 3.88,3.5511 3.89,10.38612 v 25.2887 q 0,7.30907 -3.92,11.20494 -3.92,3.89588 -11.34,3.82692 z m 0.1,-9.81725 c 1.88,0 2.82,-1.56008 2.82,-4.69746 V 29.36104 c 0,-2.58576 -0.92,-3.93897 -2.75,-3.93897 q -3.09,0 -3.09,4.03378 v 25.99547 a 8.9,7.6710774 0 0 0 0.7,3.55973 2.45,2.1117011 0 0 0 2.32,1.0774 z"
       id="path22" />
    <path
       class="foreground text"
       d="M 314.73636,69.42303 V 16.08749 h 19 c 3.17,0 5.56,0.6292 7.17,1.87037 a 10.8,9.3087232 0 0 1 3.26,5.17151 44.42,38.286434 0 0 1 0.82,7.86932 21.14,18.220964 0 0 1 -1.28,6.9643 7.44,6.412676 0 0 1 -4.84,3.61144 5.53,4.766411 0 0 1 4.1,2.49957 13,11.204945 0 0 1 1.18,5.17151 v 20.17752 h -12.19 V 48.54735 q 0,-2.34442 -1.11,-2.89604 a 7.42,6.3954376 0 0 0 -3.57,-0.56025 v 24.33197 z m 12.58,-33.57174 h 3 c 1.71,0 2.57,-1.61179 2.57,-4.81813 a 12.8,11.032561 0 0 0 -0.56,-4.09411 2.14,1.8445063 0 0 0 -2.11,-0.96535 h -2.89 z"
       id="path24" />
    <path
       class="foreground text"
       d="M 349.04636,69.42303 V 16.08749 h 12.23 v 21.36697 l 5.77,-21.36697 h 12.45 l -6.93,24.42678 8.39,28.90876 h -12.86 l -6.75,-25.81447 v 25.81447 z"
       id="path26" />
    <path
       class="foreground text"
       d="m 397.73636,69.9057 q -8.47,0 -12.22,-3.6373 -3.75,-3.63729 -3.74,-11.57557 v -5.17151 h 12.24 v 6.62816 a 7.11,6.1282428 0 0 0 0.65,2.89604 2.33,2.0082708 0 0 0 2.29,1.04293 2.6,2.2409889 0 0 0 2.34,-0.86192 6.14,5.2921815 0 0 0 0.66,-2.73228 17.35,14.954291 0 0 0 -0.56,-4.10274 10.85,9.3518191 0 0 0 -1.95,-3.15462 41.87,36.088541 0 0 0 -3.85,-3.49939 l -5.64,-4.58541 q -6.23,-5.05946 -6.22,-11.57557 0,-6.80916 3.67,-10.39474 3.67,-3.58558 10.64,-3.57696 8.5,0 12.08,3.91311 3.58,3.91311 3.56,11.87724 h -12.54 V 27.7234 a 2.61,2.2496081 0 0 0 -0.72,-1.72384 3.15,2.7150443 0 0 0 -4.12,0.10343 3.26,2.8098553 0 0 0 -0.68,1.83588 6.71,5.7834752 0 0 0 0.7,2.422 12.5,10.773985 0 0 0 2.78,2.99947 l 7.14,5.90415 a 41.89,36.105779 0 0 1 3.93,3.71487 18.7,16.117882 0 0 1 2.89,4.54231 21.82,18.807069 0 0 1 1.09,6.38682 q 0,7.52455 -3.22,11.77381 -3.22,4.24926 -11.2,4.2234 z"
       id="path28" />
    <path
       class="foreground text"
       d="M 416.26636,69.42303 V 16.08749 h 12.3 v 19.06565 h 5.84 V 16.08749 h 12.3 v 53.33554 h -12.3 V 45.2893 h -5.84 v 24.13373 z"
       id="path30" />
    <path
       class="foreground text"
       d="m 466.95636,69.9057 q -7.41,0 -11.33,-3.86139 -3.92,-3.8614 -3.92,-11.20495 V 29.54204 q 0,-6.84363 3.88,-10.34302 3.88,-3.49939 11.37,-3.5942 7.5,0 11.38,3.5511 3.88,3.55111 3.88,10.38612 v 25.3318 q 0,7.30907 -3.92,11.20494 -3.92,3.89588 -11.34,3.82692 z m 0.11,-9.81725 c 1.87,0 2.81,-1.56008 2.81,-4.69746 V 29.36104 c 0,-2.58576 -0.91,-3.93897 -2.74,-3.93897 q -3.09,0 -3.09,4.03378 v 25.99547 a 8.9,7.6710774 0 0 0 0.7,3.55973 2.44,2.1030819 0 0 0 2.32,1.0774 z"
       id="path32" />
    <path
       class="foreground text"
       d="M 487.20636,69.42303 V 16.08749 h 16.35 a 13.16,11.342852 0 0 1 8.14,1.9738 12.54,10.808462 0 0 1 4.31,5.60247 34.66,29.874106 0 0 1 1.3,8.69676 39.28,33.856171 0 0 1 -1.09,8.43818 11.9,10.256834 0 0 1 -3.89,5.55938 c -1.86,1.31012 -4.5,1.97379 -7.92,1.97379 h -5 v 21.09116 z m 12.17,-30.69293 h 0.7 c 2.3,0 3.7,-0.56025 4.22,-1.67212 a 16,13.790701 0 0 0 0.77,-4.90432 15.41,13.282169 0 0 0 -0.75,-4.68022 q -0.76,-1.65489 -3.57,-1.65489 h -1.37 z"
       id="path34" />
    <path
       class="brand text"
       d="m 247.71636,129.59358 a 14.46,12.463346 0 0 1 -10.76,-3.61144 q -4.09,-3.61144 -4.09,-10.08445 V 91.28991 q 0,-7.75727 3.57,-11.87724 3.57,-4.11998 11.62,-4.11998 a 18.25,15.730018 0 0 1 7.82,1.38769 12.38,10.670555 0 0 1 5.39,4.17169 15.19,13.092547 0 0 1 2,6.98154 v 9.21392 h -12.3 v -7.87794 a 7,6.0334317 0 0 0 -0.7,-3.2322 2.53,2.1806546 0 0 0 -2.18,-0.86192 2.3,1.9824133 0 0 0 -2.32,1.0774 7.7,6.6367749 0 0 0 -0.6,2.86157 v 26.71949 a 6.49,5.5938531 0 0 0 0.75,3.12014 2.53,2.1806546 0 0 0 2.17,0.91364 2.31,1.9910325 0 0 0 2.23,-1.1205 7.65,6.5936789 0 0 0 0.65,-2.91328 v -9.59316 h 12.44 v 10.08445 q 0,7.03326 -4.11,10.1965 -4.11,3.16324 -11.58,3.17186 z"
       id="path36" />
    <path
       class="brand text"
       d="m 282.20636,129.59358 q -7.41,0 -11.34,-3.87002 -3.93,-3.87001 -3.91,-11.16184 V 89.24716 q 0,-6.89535 3.88,-10.39474 3.88,-3.49939 11.37,-3.54249 7.5,0 11.38,3.54249 3.88,3.54249 3.88,10.39474 v 25.33179 q 0,7.30046 -3.92,11.16185 -3.92,3.8614 -11.34,3.85278 z m 0.11,-9.81726 q 2.81,0 2.81,-4.69745 V 89.04892 q 0,-3.94759 -2.74,-3.93897 c -2.06,0 -3.1,1.34459 -3.1,4.02516 v 25.96961 a 8.88,7.6538391 0 0 0 0.71,3.55973 2.46,2.1203203 0 0 0 2.32,1.11187 z"
       id="path38" />
    <path
       class="brand text"
       d="m 316.76636,129.59358 q -7.72,0 -11.39,-3.74935 -3.67,-3.74934 -3.66,-11.0067 V 75.77537 h 12 v 38.6312 a 25.67,22.125456 0 0 0 0.17,2.58576 5.23,4.5078354 0 0 0 0.81,2.01689 2.3,1.9824133 0 0 0 2,0.79296 2.38,2.0513668 0 0 0 2.08,-0.77572 5,4.3095941 0 0 0 0.79,-2.01689 28.77,24.797404 0 0 0 0.15,-2.58576 V 75.77537 h 12 v 39.06216 q 0,7.26598 -3.66,11.0067 -3.66,3.74073 -11.29,3.74935 z"
       id="path40" />
    <path
       class="brand text"
       d="M 336.55636,129.10229 V 75.77537 h 12.4 v 44.24229 h 12.73 v 9.08463 z"
       id="path42" />
    <path
       class="brand text"
       d="m 379.87636,129.59358 q -8.48,0 -12.22,-3.6373 -3.74,-3.6373 -3.7,-11.57557 v -5.17151 h 12.23 v 6.67125 a 7.19,6.1971963 0 0 0 0.65,2.88743 2.35,2.0255092 0 0 0 2.27,1.05154 2.6,2.2409889 0 0 0 2.34,-0.86192 6.08,5.2404664 0 0 0 0.65,-2.784 17,14.65262 0 0 0 -0.57,-4.11135 10.55,9.0932435 0 0 0 -1.95,-3.146 39.61,34.140604 0 0 0 -3.85,-3.49939 l -5.55,-4.55093 q -6.22,-5.08533 -6.22,-11.61867 0,-6.81778 3.67,-10.38612 3.67,-3.56835 10.63,-3.57696 8.52,0 12.08,3.90449 3.56,3.90449 3.57,11.87724 h -12.63 v -3.65454 a 2.64,2.2754657 0 0 0 -0.72,-1.72383 3.16,2.7236635 0 0 0 -4.11,0.10343 3.21,2.7667594 0 0 0 -0.69,1.83588 6.66,5.7403793 0 0 0 0.71,2.42199 12.43,10.713651 0 0 0 2.77,2.99948 l 7.14,5.91277 a 41,35.338671 0 0 1 3.94,3.71487 18.93,16.316123 0 0 1 2.88,4.54231 21.53,18.557112 0 0 1 1.09,6.31786 q 0,7.51593 -3.22,11.77381 -3.22,4.25788 -11.19,4.28374 z"
       id="path44" />
    <path
       class="brand text"
       d="M 398.39636,129.10229 V 75.77537 h 17 q 6.68,0 10.05,3.19772 3.37,3.19772 3.38,9.3432 v 24.99564 q 0,7.57627 -3.08,11.69624 -3.08,4.11997 -10.79,4.09412 z m 12.45,-9.42078 h 2.11 c 2.28,0 3.41,-0.94811 3.41,-2.84433 V 89.31611 c 0,-1.77555 -0.27,-2.9219 -0.82,-3.44767 -0.55,-0.52577 -1.67,-0.76711 -3.36,-0.76711 h -1.37 z"
       id="path46" />
    <path
       class="brand text"
       d="m 448.67636,129.59358 q -7.43,0 -11.34,-3.87002 -3.91,-3.87001 -3.92,-11.16184 V 89.24716 q 0,-6.89535 3.88,-10.39474 3.88,-3.49939 11.38,-3.54249 7.48,0 11.37,3.54249 3.89,3.54249 3.91,10.39474 v 25.33179 q 0,7.30046 -3.92,11.16185 -3.92,3.8614 -11.36,3.85278 z m 0.1,-9.81726 q 2.82,0 2.82,-4.69745 V 89.04892 q 0,-3.94759 -2.75,-3.93897 -3.09,0 -3.09,4.02516 v 25.96961 a 8.9,7.6710774 0 0 0 0.7,3.55973 2.47,2.1289395 0 0 0 2.32,1.11187 z"
       id="path48" />
    <path
       class="brand text"
       d="M 468.95636,129.10229 V 75.77537 h 12.72 l 5.7,25.54727 V 75.77537 h 11.95 v 53.32692 h -12.12 l -6.19,-26.65915 v 26.65915 z"
       id="path50" />
    <path
       class="foreground text"
       d="m 193.59774,69.355512 v -53.3116 h 22.79188 v 5.212279 h -15.35818 v 18.238631 h 14.37633 v 5.169192 h -14.37633 v 19.522309 h 15.59116 v 5.169189 z"
       id="path10-5-3"
       style="fill:#ffffff;stroke:#14161a;stroke-width:2.05591;paint-order:markers stroke fill" />
    <path
       class="foreground text"
       d="M 142.63625,69.355512 V 21.256191 H 132.6385 V 16.08699 h 27.69948 v 5.212279 h -10.29866 v 48.056243 z"
       id="path6-2-6"
       style="fill:#ffffff;stroke:#14161a;stroke-width:2.05591;paint-order:markers stroke fill" />
  </g>
</svg>
