<?xml version="1.0" encoding="UTF-8"?>
<svg width="210mm" height="210mm" version="1.1" viewBox="0 0 210 210" xmlns="http://www.w3.org/2000/svg">
 <g transform="translate(-.0013376 -.45412)" style="opacity:.999;stroke-width:5">
  <path transform="scale(.26458)" d="m384.54 49.867s-32.445 65.574-154.22 97c-122.74 28.147-186.9-13.891-186.9-13.891-28.835 107.95 113.68 434.25 283.22 432.05-10.687-126.15 30.533-277.13 82.514-326.67 0 0 14.002 28.295 58.127 56.619-7.3436-103.51-41.676-205.96-82.744-245.11z" style="fill:none;paint-order:fill markers stroke;stroke-width:18.898;stroke:#000"/>
  <path d="m57.174 61.051c-1.3525 5.2758-5.8133 9.4333-11.58 10.793-5.7671 1.3598-11.888-0.30282-15.889-4.3162" style="fill:none;paint-order:markers stroke fill;stroke-width:5;stroke:#000"/>
  <path d="m104.18 49.815c-1.3525 5.2758-5.8133 9.4333-11.58 10.793-5.767 1.3598-11.888-0.30283-15.889-4.3162" style="fill:none;paint-order:markers stroke fill;stroke-width:5;stroke:#000"/>
  <path transform="scale(.26458)" d="m336.17 409.55c-26.214 0.84398-53.022 9.7079-72.57 24.693-25.352 19.435-33.636 45.429-21.072 66.127 0 0 53.966-23.651 82.73-30.658 0.75518-0.18398 1.5436-0.36504 2.3398-0.54492 1.9128-20.18 4.8198-40.201 8.5723-59.617z" style="fill:none;paint-order:markers stroke fill;stroke-width:18.898;stroke:#000"/>
  <path d="m198.51 85.054s-16.975 11.122-49.45 3.6752c-32.22-8.3149-40.804-25.665-40.804-25.665-23.447 22.348-38.621 122.7 8.43 135.52 47.798 10.286 89.842-83.521 81.825-113.54z" style="fill:none;paint-order:fill markers stroke;stroke-width:5;stroke:#000"/>
  <path d="m103.51 108.54c4.0724-3.9541 10.222-5.5266 15.964-4.0823 5.7422 1.4442 10.129 5.6668 11.387 10.962" style="fill:none;paint-order:markers stroke fill;stroke-width:5;stroke:#000"/>
  <path d="m150.39 120.18c4.0724-3.9541 10.222-5.5266 15.964-4.0823 5.7422 1.4442 10.128 5.6668 11.387 10.962" style="fill:none;paint-order:markers stroke fill;stroke-width:5;stroke:#000"/>
  <path d="m150.8 165.05c-0.13257 6.254-5.8126 11.214-14.449 12.618-8.6368 1.4036-18.575-1.018-25.283-6.1603-6.7074-5.1423-8.8985-12.02-5.5738-17.496 0 0 14.278 6.2581 21.889 8.1124 7.6106 1.8544 23.417 2.9266 23.417 2.9266z" style="fill:none;paint-order:markers stroke fill;stroke-width:5;stroke:#000"/>
 </g>
</svg>
