<?xml version="1.0" encoding="UTF-8"?>
<svg width="200mm" height="200mm" version="1.1" viewBox="0 0 200 200" xmlns="http://www.w3.org/2000/svg">
 <g>
  <path d="m148.78 35.061-14.484-16.254c-36.738-0.045762-54.749 54.326-82.037 81.576 27.288 27.25 45.3 81.622 82.037 81.576l14.484-16.254c-36.101-0.43876-43.579-43.556-65.38-65.322 21.802-21.766 29.279-64.883 65.38-65.322z" style="fill:#fff;stroke-width:3.218;stroke:#000"/>
 </g>
 <path d="m53.536 35.061 14.484-16.254c36.738-0.0458 54.749 54.326 82.037 81.576-27.288 27.25-45.3 81.622-82.037 81.576l-14.484-16.254c36.101-0.43876 43.579-43.556 65.38-65.322-21.802-21.766-29.279-64.883-65.38-65.322z" style="fill:#fff;stroke-width:3.218;stroke:#000"/>
</svg>
