<svg xmlns="http://www.w3.org/2000/svg" viewBox="0 0 660.57 159.69"><defs><style>.cls-1,.cls-5{fill:#1d1d1b;}.cls-2{fill:#fff;}.cls-3{font-size:72px;fill:red;font-family:Anton-Regular, Anton;}.cls-4{font-family:MyriadPro-Regular, Myriad Pro;fill:#000;}.cls-5{stroke:#fff;stroke-miterlimit:10;stroke-width:2px;}</style></defs><g id="Layer_2" data-name="Layer 2"><g id="Layer_1-2" data-name="Layer 1"><rect class="cls-1" width="660.57" height="142"/><path class="cls-2" d="M11.75,67V11.17H4.93v-6H25.35v6.05H19V67Z"/><path class="cls-2" d="M31.26,67V5.12h7.28V31.6h9.91V5.12h7.28V67H48.45V37.54H38.54V67Z"/><path class="cls-2" d="M65.85,67V5.12H84.34v6.05H73.13V32.34H83.75v6H73.13V61H84.48v6Z"/><path class="cls-2" d="M89.09,67,98.48,5.12h8.75L117.46,67h-6.85l-1.76-11.81H97.63L96,67Zm9.35-17.72h9.49l-4.88-32.69h-.11Z"/><path class="cls-2" d="M126.88,67V11.17h-6.82v-6h20.43v6.05h-6.36V67Z"/><path class="cls-2" d="M146.39,67V5.12h13c3.28,0,5.7.59,7.27,1.75a8.27,8.27,0,0,1,3.08,5.23,44.88,44.88,0,0,1,.72,8.81A28.7,28.7,0,0,1,169.28,30a6.47,6.47,0,0,1-4.5,4.36,4.77,4.77,0,0,1,2.8,1.44,8.31,8.31,0,0,1,1.74,3.62,36.73,36.73,0,0,1,.89,6.59c.18,2.75.27,6.22.27,10.39v1.72q0,1.13,0,2.46c0,.89.05,1.77.09,2.64s.09,1.63.16,2.3A6,6,0,0,0,171,67H163.8a5.31,5.31,0,0,1-.25-1.41c-.07-.72-.13-1.68-.17-2.88s-.09-2.62-.11-4.27,0-3.5,0-5.56V46.15a37.61,37.61,0,0,0-.29-5.36,3.58,3.58,0,0,0-1.41-2.57,7.58,7.58,0,0,0-3.53-.86l-4.33-.24V67Zm7.28-35.23h4.64a5.12,5.12,0,0,0,3.08-.79,4.77,4.77,0,0,0,1.46-3.16,48,48,0,0,0,.38-7.12v-.42a36.64,36.64,0,0,0-.36-6,4,4,0,0,0-1.43-2.73,5.82,5.82,0,0,0-3.2-.7h-4.57Z"/><path class="cls-2" d="M179.41,67V5.12H197.9v6.05H186.68V32.34H197.3v6H186.68V61H198v6Z"/><path class="cls-2" d="M225.36,67,218.71,5.12h12.1l3.41,39.06L237.7,5.12h11.53l3.3,39.06,3.31-39.06h12.23L261.32,67H246.48l-3.09-29.78L240.44,67Z"/><path class="cls-2" d="M286.53,67.56q-7.42,0-11.34-4.48t-3.92-13V20.73q0-7.94,3.88-12t11.38-4.12q7.49,0,11.37,4.12t3.89,12.05V50.12q0,8.48-3.92,13T286.53,67.56Zm.1-11.39c1.88,0,2.82-1.81,2.82-5.45V20.52c0-3-.92-4.57-2.75-4.57q-3.09,0-3.09,4.68V50.79a8.9,8.9,0,0,0,.7,4.13A2.45,2.45,0,0,0,286.63,56.17Z"/><path class="cls-2" d="M306.78,67V5.12h19c3.17,0,5.56.73,7.17,2.17a10.8,10.8,0,0,1,3.26,6,44.42,44.42,0,0,1,.82,9.13,21.14,21.14,0,0,1-1.28,8.08,7.44,7.44,0,0,1-4.84,4.19,5.53,5.53,0,0,1,4.1,2.9,13,13,0,0,1,1.18,6V67H324V42.78q0-2.72-1.11-3.36a7.42,7.42,0,0,0-3.57-.65V67Zm12.58-38.95h3c1.71,0,2.57-1.87,2.57-5.59a12.8,12.8,0,0,0-.56-4.75,2.14,2.14,0,0,0-2.11-1.12h-2.89Z"/><path class="cls-2" d="M341.09,67V5.12h12.23V29.91l5.77-24.79h12.45l-6.93,28.34L373,67H360.14l-6.75-29.95V67Z"/><path class="cls-2" d="M389.78,67.56q-8.47,0-12.22-4.22t-3.74-13.43v-6h12.24V51.6a7.11,7.11,0,0,0,.65,3.36A2.33,2.33,0,0,0,389,56.17a2.6,2.6,0,0,0,2.34-1A6.14,6.14,0,0,0,392,52a17.35,17.35,0,0,0-.56-4.76,10.85,10.85,0,0,0-1.95-3.66,41.87,41.87,0,0,0-3.85-4.06L380,34.2q-6.23-5.87-6.22-13.43,0-7.9,3.67-12.06t10.64-4.15q8.5,0,12.08,4.54t3.56,13.78H391.19V18.62a2.61,2.61,0,0,0-.72-2,3.15,3.15,0,0,0-4.12.12,3.26,3.26,0,0,0-.68,2.13,6.71,6.71,0,0,0,.7,2.81,12.5,12.5,0,0,0,2.78,3.48l7.14,6.85a41.89,41.89,0,0,1,3.93,4.31,18.7,18.7,0,0,1,2.89,5.27A21.82,21.82,0,0,1,404.2,49q0,8.73-3.22,13.66T389.78,67.56Z"/><path class="cls-2" d="M408.31,67V5.12h12.3V27.24h5.84V5.12h12.3V67h-12.3V39h-5.84V67Z"/><path class="cls-2" d="M459,67.56q-7.41,0-11.33-4.48t-3.92-13V20.73q0-7.94,3.88-12T459,4.56q7.5,0,11.38,4.12t3.88,12.05V50.12q0,8.48-3.92,13T459,67.56Zm.11-11.39c1.87,0,2.81-1.81,2.81-5.45V20.52c0-3-.91-4.57-2.74-4.57q-3.09,0-3.09,4.68V50.79a8.9,8.9,0,0,0,.7,4.13A2.44,2.44,0,0,0,459.11,56.17Z"/><path class="cls-2" d="M479.25,67V5.12H495.6a13.16,13.16,0,0,1,8.14,2.29,12.54,12.54,0,0,1,4.31,6.5A34.66,34.66,0,0,1,509.35,24a39.28,39.28,0,0,1-1.09,9.79,11.9,11.9,0,0,1-3.89,6.45c-1.86,1.52-4.5,2.29-7.92,2.29h-5V67Zm12.17-35.61h.7c2.3,0,3.7-.65,4.22-1.94a16,16,0,0,0,.77-5.69,15.41,15.41,0,0,0-.75-5.43q-.76-1.92-3.57-1.92h-1.37Z"/><text class="cls-3" transform="translate(222.61 136.24)">COULSDON<tspan class="cls-4" x="271.48" y="0"> </tspan></text><circle class="cls-5" cx="584.16" cy="71" r="66.27"/><circle class="cls-2" cx="584.16" cy="38.21" r="10.74"/><path class="cls-2" d="M591.27,50.38,616,29,602,57.09a33,33,0,0,0,.82,31L619,116.61,595.45,96.07a17.18,17.18,0,0,0-22.58,0l-23.53,20.54,16.19-28.5a33,33,0,0,0,.82-31L552.31,29l24.74,21.36A10.89,10.89,0,0,0,591.27,50.38Z"/></g></g></svg>