<?xml version="1.0" encoding="UTF-8" standalone="no"?>
<svg
   xmlns:dc="http://purl.org/dc/elements/1.1/"
   xmlns:cc="http://creativecommons.org/ns#"
   xmlns:rdf="http://www.w3.org/1999/02/22-rdf-syntax-ns#"
   xmlns:svg="http://www.w3.org/2000/svg"
   xmlns="http://www.w3.org/2000/svg"
   xmlns:sodipodi="http://sodipodi.sourceforge.net/DTD/sodipodi-0.dtd"
   xmlns:inkscape="http://www.inkscape.org/namespaces/inkscape"
   width="210mm"
   height="210mm"
   viewBox="0 0 210 210"
   version="1.1"
   id="svg8"
   inkscape:version="1.0.2 (394de47547, 2021-03-26)"
   sodipodi:docname="icons.svg">
  <defs
     id="defs2" />
  <sodipodi:namedview
     id="base"
     pagecolor="#ffffff"
     bordercolor="#666666"
     borderopacity="1.0"
     inkscape:pageopacity="0.0"
     inkscape:pageshadow="2"
     inkscape:zoom="0.7"
     inkscape:cx="-95.826242"
     inkscape:cy="551.88243"
     inkscape:document-units="mm"
     inkscape:current-layer="layer1"
     inkscape:document-rotation="0"
     showgrid="false"
     inkscape:window-width="3440"
     inkscape:window-height="1376"
     inkscape:window-x="0"
     inkscape:window-y="27"
     inkscape:window-maximized="1" />
  <metadata
     id="metadata5">
    <rdf:RDF>
      <cc:Work
         rdf:about="">
        <dc:format>image/svg+xml</dc:format>
        <dc:type
           rdf:resource="http://purl.org/dc/dcmitype/StillImage" />
        <dc:title></dc:title>
      </cc:Work>
    </rdf:RDF>
  </metadata>
  <g
     inkscape:groupmode="layer"
     id="layer5"
     inkscape:label="Background"
     style="display:none">
    <ellipse
       style="display:inline;fill:#ffffff;fill-opacity:1;stroke:#000000;stroke-width:7.46331;stroke-miterlimit:4;stroke-dasharray:none;stroke-opacity:1;paint-order:fill markers stroke"
       id="path1122"
       cx="105"
       cy="104.99999"
       rx="96.268349"
       ry="96.268341" />
  </g>
  <g
     inkscape:label="Audio"
     inkscape:groupmode="layer"
     id="layer1"
     style="display:inline">
    <g
       id="g1132"
       transform="matrix(1.7448833,0,0,1.7448833,-78.212752,-62.624602)">
      <path
         id="rect835-3"
         style="fill:none;stroke:#000000;stroke-width:5;stroke-miterlimit:4;stroke-dasharray:none;stroke-opacity:1;paint-order:markers stroke fill"
         d="m 130.95151,82.679351 v 20.802729 c 0,14.37715 -11.57437,25.95152 -25.95151,25.95152 -14.377129,0 -25.95151,-11.57437 -25.95151,-25.95152 V 82.679351"
         sodipodi:nodetypes="csssc" />
      <rect
         style="fill:#ffffff;stroke:#000000;stroke-width:5;stroke-miterlimit:4;stroke-dasharray:none;stroke-opacity:1;paint-order:fill markers stroke"
         id="rect835"
         width="36.924564"
         height="73.849129"
         x="86.53772"
         y="46.861473"
         ry="18.462282" />
      <path
         style="fill:none;stroke:#000000;stroke-width:5;stroke-linecap:butt;stroke-linejoin:miter;stroke-miterlimit:4;stroke-dasharray:none;stroke-opacity:1"
         d="m 105,130.52481 v 14.41778"
         id="path860"
         sodipodi:nodetypes="cc" />
      <path
         style="fill:none;stroke:#000000;stroke-width:5;stroke-linecap:butt;stroke-linejoin:miter;stroke-miterlimit:4;stroke-dasharray:none;stroke-opacity:1"
         d="M 83.940258,145.27125 H 126.05974"
         id="path862" />
    </g>
  </g>
  <g
     inkscape:groupmode="layer"
     id="layer2"
     inkscape:label="Productions"
     style="display:none;opacity:0.999">
    <g
       id="g1142"
       transform="matrix(1.4698105,0,0,1.3364475,-54.159374,-37.110549)">
      <path
         id="rect908-7"
         style="fill:#ffffff;stroke:#000000;stroke-width:4.99999;stroke-miterlimit:4;stroke-dasharray:none;stroke-opacity:1;paint-order:fill markers stroke"
         d="m 106.06997,37.640557 c 0,0 -5.84051,12.98194 -27.761669,19.20357 -22.09509,5.57249 -33.64409,-2.74994 -33.64409,-2.74994 -5.45448,22.45779 23.15019,92.649073 55.670299,84.952863 32.01135,-9.59494 21.68808,-84.684713 5.73546,-101.406493 z"
         sodipodi:nodetypes="scscs" />
      <path
         id="path917-5"
         style="fill:none;stroke:#000000;stroke-width:4.99999;stroke-miterlimit:4;stroke-dasharray:none;stroke-opacity:1;paint-order:markers stroke fill"
         d="m 75.746421,73.449487 c -0.92018,3.94763 -3.95511,7.05851 -7.8788,8.07597 -3.92368,1.01749 -8.0879,-0.22659 -10.81047,-3.22961"
         sodipodi:nodetypes="csc" />
      <path
         id="path917-6-3"
         style="fill:none;stroke:#000000;stroke-width:4.99999;stroke-miterlimit:4;stroke-dasharray:none;stroke-opacity:1;paint-order:markers stroke fill"
         d="m 107.72523,65.042197 c -0.92019,3.94763 -3.95511,7.05851 -7.878819,8.07598 -3.92366,1.01749 -8.08789,-0.22659 -10.81047,-3.22961"
         sodipodi:nodetypes="csc" />
      <path
         id="path943-5"
         style="fill:none;stroke:#000000;stroke-width:3.43704;stroke-miterlimit:4;stroke-dasharray:none;stroke-opacity:1;paint-order:markers stroke fill"
         d="m 80.506121,126.82862 c -2.26164,-4.09772 -0.77058,-9.24398 3.79314,-13.09159 4.56371,-3.84761 11.32559,-5.6593 17.201549,-4.60877 5.87595,1.05053 9.74009,4.762 9.82994,9.4416 0,0 -10.75411,0.80186 -15.932099,2.1892 -5.17799,1.38732 -14.89253,6.06956 -14.89253,6.06956 z"
         sodipodi:nodetypes="cssczc" />
      <path
         id="rect908"
         style="fill:#ffffff;stroke:#000000;stroke-width:4.99999;stroke-miterlimit:4;stroke-dasharray:none;stroke-opacity:1;paint-order:fill markers stroke"
         d="m 171.90708,91.409714 c 0,0 -11.54899,8.322429 -33.64409,2.74994 -21.92116,-6.22163 -27.76167,-19.203567 -27.76167,-19.203567 -15.952619,16.721777 -26.275889,91.811553 5.73546,101.406493 32.52011,7.69622 61.12478,-62.49508 55.6703,-84.952866 z"
         sodipodi:nodetypes="scscs" />
      <path
         id="path917"
         style="fill:none;stroke:#000000;stroke-width:4.99999;stroke-miterlimit:4;stroke-dasharray:none;stroke-opacity:1;paint-order:markers stroke fill"
         d="m 107.27234,108.98375 c 2.77072,-2.95866 6.95448,-4.1353 10.86123,-3.0546 3.90675,1.08066 6.89103,4.24018 7.74734,8.20216"
         sodipodi:nodetypes="csc" />
      <path
         id="path917-6"
         style="fill:none;stroke:#000000;stroke-width:4.99999;stroke-miterlimit:4;stroke-dasharray:none;stroke-opacity:1;paint-order:markers stroke fill"
         d="m 139.17044,117.69223 c 2.77073,-2.95866 6.95448,-4.1353 10.86125,-3.0546 3.90674,1.08066 6.89102,4.24018 7.74733,8.20216"
         sodipodi:nodetypes="csc" />
      <path
         id="path943"
         style="fill:none;stroke:#000000;stroke-width:3.43704;stroke-miterlimit:4;stroke-dasharray:none;stroke-opacity:1;paint-order:markers stroke fill"
         d="m 139.44379,151.26914 c -0.0902,4.67955 -3.95466,8.39081 -9.83076,9.44108 -5.8761,1.05027 -12.63789,-0.7617 -17.20136,-4.60946 -4.56346,-3.84777 -6.05416,-8.99406 -3.79218,-13.09164 0,0 9.71427,4.68262 14.8922,6.07016 5.17794,1.38753 15.9321,2.18986 15.9321,2.18986 z"
         sodipodi:nodetypes="cssczc" />
    </g>
  </g>
  <g
     inkscape:groupmode="layer"
     id="layer3"
     inkscape:label="Film"
     style="display:none">
    <g
       id="g1155"
       transform="matrix(1.9116808,0,0,1.9116808,515.21971,-379.00897)">
      <rect
         style="fill:#000000;fill-opacity:1;stroke:none;stroke-width:4.99999;stroke-miterlimit:4;stroke-dasharray:none;stroke-opacity:1;paint-order:fill markers stroke"
         id="rect991"
         width="93.762573"
         height="93.762573"
         x="-261.46716"
         y="206.30374"
         ry="0" />
      <rect
         style="fill:#ffffff;fill-opacity:1;stroke:none;stroke-width:4.30123;stroke-miterlimit:4;stroke-dasharray:none;stroke-opacity:1;paint-order:fill markers stroke"
         id="rect993"
         width="58.001835"
         height="35.847103"
         x="-243.58679"
         y="212.30763"
         ry="6.9928346" />
      <rect
         style="display:inline;fill:#ffffff;fill-opacity:1;stroke:none;stroke-width:4.30123;stroke-miterlimit:4;stroke-dasharray:none;stroke-opacity:1;paint-order:fill markers stroke"
         id="rect993-2"
         width="58.001835"
         height="35.847103"
         x="-243.58679"
         y="259.26733"
         ry="6.9928346" />
      <rect
         style="fill:#ffffff;fill-opacity:1;stroke:none;stroke-width:4.99999;stroke-miterlimit:4;stroke-dasharray:none;stroke-opacity:1;paint-order:fill markers stroke"
         id="rect1040"
         width="12.383815"
         height="12.383815"
         x="-258.82129"
         y="213.18289"
         ry="0.35036126" />
      <rect
         style="display:inline;fill:#ffffff;fill-opacity:1;stroke:none;stroke-width:4.99999;stroke-miterlimit:4;stroke-dasharray:none;stroke-opacity:1;paint-order:fill markers stroke"
         id="rect1040-9"
         width="12.383815"
         height="12.383815"
         x="-258.82129"
         y="236.15005"
         ry="0.35036126" />
      <rect
         style="display:inline;fill:#ffffff;fill-opacity:1;stroke:none;stroke-width:4.99999;stroke-miterlimit:4;stroke-dasharray:none;stroke-opacity:1;paint-order:fill markers stroke"
         id="rect1040-1"
         width="12.383815"
         height="12.383815"
         x="-258.82129"
         y="259.11719"
         ry="0.35036126" />
      <rect
         style="display:inline;fill:#ffffff;fill-opacity:1;stroke:none;stroke-width:4.99999;stroke-miterlimit:4;stroke-dasharray:none;stroke-opacity:1;paint-order:fill markers stroke"
         id="rect1040-9-2"
         width="12.383815"
         height="12.383815"
         x="-258.82129"
         y="282.08432"
         ry="0.35036126" />
      <rect
         style="display:inline;fill:#ffffff;fill-opacity:1;stroke:none;stroke-width:4.99999;stroke-miterlimit:4;stroke-dasharray:none;stroke-opacity:1;paint-order:fill markers stroke"
         id="rect1040-7"
         width="12.383815"
         height="12.383815"
         x="-182.93741"
         y="213.18289"
         ry="0.35036126" />
      <rect
         style="display:inline;fill:#ffffff;fill-opacity:1;stroke:none;stroke-width:4.99999;stroke-miterlimit:4;stroke-dasharray:none;stroke-opacity:1;paint-order:fill markers stroke"
         id="rect1040-9-0"
         width="12.383815"
         height="12.383815"
         x="-182.93741"
         y="236.15005"
         ry="0.35036126" />
      <rect
         style="display:inline;fill:#ffffff;fill-opacity:1;stroke:none;stroke-width:4.99999;stroke-miterlimit:4;stroke-dasharray:none;stroke-opacity:1;paint-order:fill markers stroke"
         id="rect1040-1-9"
         width="12.383815"
         height="12.383815"
         x="-182.93741"
         y="259.11719"
         ry="0.35036126" />
      <rect
         style="display:inline;fill:#ffffff;fill-opacity:1;stroke:none;stroke-width:4.99999;stroke-miterlimit:4;stroke-dasharray:none;stroke-opacity:1;paint-order:fill markers stroke"
         id="rect1040-9-2-3"
         width="12.383815"
         height="12.383815"
         x="-182.93741"
         y="282.08435"
         ry="0.35036126" />
    </g>
  </g>
</svg>
