<svg xmlns="http://www.w3.org/2000/svg" viewBox="0 0 646.5 155.96"><defs><style>.cls-1{fill:#fff;}.cls-2{font-size:72px;fill:red;font-family:Anton-Regular, Anton;}.cls-3{font-family:MyriadPro-Regular, Myriad Pro;fill:#000;}.cls-4{fill:#1d1d1b;stroke:#fff;stroke-miterlimit:10;stroke-width:2px;}</style></defs><g id="Layer_2" data-name="Layer 2"><g id="Layer_1-2" data-name="Layer 1"><path class="cls-1" d="M7.66,66.94V11.11H.84v-6H21.27v6.05H14.91V66.94Z" transform="translate(-0.84 -3.67)"/><path class="cls-1" d="M27.18,66.94V5.06h7.27V31.54h9.92V5.06h7.27V66.94H44.37V37.48H34.45V66.94Z" transform="translate(-0.84 -3.67)"/><path class="cls-1" d="M61.77,66.94V5.06H80.26v6.05H69.05V32.27H79.66v6H69.05V60.89H80.4v6Z" transform="translate(-0.84 -3.67)"/><path class="cls-1" d="M85,66.94,94.39,5.06h8.76l10.23,61.88h-6.86l-1.75-11.82H93.55L91.93,66.94Zm9.35-17.72h9.49L99,16.52h-.1Z" transform="translate(-0.84 -3.67)"/><path class="cls-1" d="M122.8,66.94V11.11H116v-6h20.43v6.05H130V66.94Z" transform="translate(-0.84 -3.67)"/><path class="cls-1" d="M142.31,66.94V5.06h13q4.92,0,7.27,1.74A8.3,8.3,0,0,1,165.64,12a44.81,44.81,0,0,1,.72,8.81A28.92,28.92,0,0,1,165.2,30a6.45,6.45,0,0,1-4.5,4.36,4.86,4.86,0,0,1,2.79,1.44,8.14,8.14,0,0,1,1.74,3.63,35.59,35.59,0,0,1,.9,6.59c.18,2.75.26,6.21.26,10.39v1.72c0,.75,0,1.57,0,2.46s0,1.77.09,2.64.09,1.63.16,2.3a6.13,6.13,0,0,0,.28,1.46h-7.25a5.94,5.94,0,0,1-.24-1.41c-.07-.72-.13-1.69-.18-2.88s-.08-2.62-.1-4.27,0-3.51,0-5.56V46.09a35.89,35.89,0,0,0-.3-5.36,3.55,3.55,0,0,0-1.4-2.57,7.47,7.47,0,0,0-3.54-.86l-4.32-.25V66.94Zm7.28-35.23h4.64a5.12,5.12,0,0,0,3.08-.79,4.8,4.8,0,0,0,1.46-3.16,49.55,49.55,0,0,0,.38-7.12v-.43a35.17,35.17,0,0,0-.37-6,4,4,0,0,0-1.42-2.73,5.82,5.82,0,0,0-3.2-.7h-4.57Z" transform="translate(-0.84 -3.67)"/><path class="cls-1" d="M175.32,66.94V5.06h18.5v6.05H182.6V32.27h10.62v6H182.6V60.89H194v6Z" transform="translate(-0.84 -3.67)"/><path class="cls-1" d="M221.27,66.94,214.63,5.06h12.09l3.41,39.06,3.48-39.06h11.53l3.31,39.06,3.3-39.06H264l-6.75,61.88H242.4l-3.09-29.78-2.95,29.78Z" transform="translate(-0.84 -3.67)"/><path class="cls-1" d="M282.45,67.5Q275,67.5,271.11,63t-3.92-13V20.67q0-7.94,3.88-12.06T282.45,4.5q7.49,0,11.37,4.11t3.88,12.06V50.06q0,8.47-3.92,13T282.45,67.5Zm.1-11.39c1.88,0,2.81-1.82,2.81-5.45V20.46q0-4.58-2.74-4.57-3.09,0-3.09,4.68V50.73a8.9,8.9,0,0,0,.7,4.13A2.46,2.46,0,0,0,282.55,56.11Z" transform="translate(-0.84 -3.67)"/><path class="cls-1" d="M302.7,66.94V5.06h19q4.74,0,7.17,2.16a10.86,10.86,0,0,1,3.25,6.05,44.33,44.33,0,0,1,.83,9.12,21.2,21.2,0,0,1-1.28,8.09,7.41,7.41,0,0,1-4.84,4.18,5.57,5.57,0,0,1,4.1,2.9,13.19,13.19,0,0,1,1.18,6V66.94h-12.2V42.71c0-1.8-.37-2.92-1.11-3.35a7.3,7.3,0,0,0-3.57-.65V66.94Zm12.58-39h3q2.57,0,2.57-5.59a12.49,12.49,0,0,0-.57-4.74,2.13,2.13,0,0,0-2.11-1.13h-2.88Z" transform="translate(-0.84 -3.67)"/><path class="cls-1" d="M337,66.94V5.06h12.23V29.85L355,5.06h12.44L360.53,33.4l8.36,33.54H356.06l-6.75-30v30Z" transform="translate(-0.84 -3.67)"/><path class="cls-1" d="M385.7,67.5q-8.47,0-12.22-4.22t-3.74-13.43V43.8H382v7.74a7.24,7.24,0,0,0,.65,3.36,2.36,2.36,0,0,0,2.27,1.21,2.59,2.59,0,0,0,2.34-1,6.08,6.08,0,0,0,.65-3.23,17.3,17.3,0,0,0-.56-4.76,10.85,10.85,0,0,0-1.95-3.66,41.87,41.87,0,0,0-3.85-4.06L376,34.14q-6.22-5.88-6.22-13.43,0-7.92,3.67-12.06T384.05,4.5q8.51,0,12.07,4.54t3.57,13.78H387.11V18.56a2.84,2.84,0,0,0-4.84-1.84,3.19,3.19,0,0,0-.68,2.12,6.71,6.71,0,0,0,.7,2.82,12.6,12.6,0,0,0,2.78,3.48L392.2,32a40.89,40.89,0,0,1,3.94,4.31A18.43,18.43,0,0,1,399,41.57a21.57,21.57,0,0,1,1.09,7.33q0,8.73-3.21,13.66T385.7,67.5Z" transform="translate(-0.84 -3.67)"/><path class="cls-1" d="M404.23,66.94V5.06h12.3V27.18h5.84V5.06h12.3V66.94h-12.3V38.88h-5.84V66.94Z" transform="translate(-0.84 -3.67)"/><path class="cls-1" d="M454.92,67.5q-7.41,0-11.34-4.48t-3.92-13V20.67q0-7.94,3.89-12.06T454.92,4.5c5,0,8.79,1.37,11.37,4.11s3.89,6.77,3.89,12.06V50.06q0,8.47-3.92,13T454.92,67.5ZM455,56.11q2.81,0,2.81-5.45V20.46q0-4.58-2.74-4.57c-2.06,0-3.1,1.56-3.1,4.68V50.73a8.88,8.88,0,0,0,.71,4.13A2.46,2.46,0,0,0,455,56.11Z" transform="translate(-0.84 -3.67)"/><path class="cls-1" d="M475.17,66.94V5.06h16.35a13.11,13.11,0,0,1,8.14,2.29,12.47,12.47,0,0,1,4.3,6.5,34.25,34.25,0,0,1,1.31,10.06,39.28,39.28,0,0,1-1.09,9.79,12,12,0,0,1-3.89,6.45q-2.79,2.28-7.93,2.28h-5V66.94Zm12.17-35.62h.7c2.3,0,3.7-.64,4.22-1.93A16.23,16.23,0,0,0,493,23.7a15.51,15.51,0,0,0-.75-5.44c-.51-1.27-1.7-1.91-3.57-1.91h-1.37Z" transform="translate(-0.84 -3.67)"/><text class="cls-2" transform="translate(217.68 132.51)">COULSDON<tspan class="cls-3" x="271.48" y="0"> </tspan></text><circle class="cls-4" cx="579.23" cy="67.27" r="66.27"/><circle class="cls-1" cx="579.23" cy="34.47" r="10.74"/><path class="cls-1" d="M587.19,50.31,611.92,29,597.89,57a33,33,0,0,0,.82,31l16.18,28.5L591.37,96a17.17,17.17,0,0,0-22.59,0l-23.52,20.54,16.19-28.5a33,33,0,0,0,.82-31L548.23,29,573,50.31A10.87,10.87,0,0,0,587.19,50.31Z" transform="translate(-0.84 -3.67)"/></g></g></svg>