<?xml version="1.0" encoding="UTF-8" standalone="no"?>
<svg
   xmlns:dc="http://purl.org/dc/elements/1.1/"
   xmlns:cc="http://creativecommons.org/ns#"
   xmlns:rdf="http://www.w3.org/1999/02/22-rdf-syntax-ns#"
   xmlns:svg="http://www.w3.org/2000/svg"
   xmlns="http://www.w3.org/2000/svg"
   xmlns:sodipodi="http://sodipodi.sourceforge.net/DTD/sodipodi-0.dtd"
   xmlns:inkscape="http://www.inkscape.org/namespaces/inkscape"
   version="1.1"
   id="svg2"
   xml:space="preserve"
   width="1821.3333"
   height="1024"
   viewBox="0 0 1821.3333 1024"
   sodipodi:docname="twcoulsdon-logo.svg"
   inkscape:version="1.0.2 (394de47547, 2021-03-26)"><metadata
     id="metadata8"><rdf:RDF><cc:Work
         rdf:about=""><dc:format>image/svg+xml</dc:format><dc:type
           rdf:resource="http://purl.org/dc/dcmitype/StillImage" /><dc:title></dc:title></cc:Work></rdf:RDF></metadata><defs
     id="defs6"><clipPath
       clipPathUnits="userSpaceOnUse"
       id="clipPath32"><path
         d="M 0,768 H 1366 V 0 H 0 Z"
         id="path30" /></clipPath></defs><sodipodi:namedview
     pagecolor="#ffffff"
     bordercolor="#666666"
     borderopacity="1"
     objecttolerance="10"
     gridtolerance="10"
     guidetolerance="10"
     inkscape:pageopacity="0"
     inkscape:pageshadow="2"
     inkscape:window-width="3440"
     inkscape:window-height="1376"
     id="namedview4"
     showgrid="false"
     inkscape:zoom="0.75439242"
     inkscape:cx="910.66663"
     inkscape:cy="512"
     inkscape:window-x="0"
     inkscape:window-y="27"
     inkscape:window-maximized="1"
     inkscape:current-layer="g10" /><g
     id="g10"
     inkscape:groupmode="layer"
     inkscape:label="twcoulsdon-logo"
     transform="matrix(1.3333333,0,0,-1.3333333,0,1024)"><path
       d="M 840.8,408 H 180.229 V 550 H 840.8 Z"
       style="fill:#1d1d1b;fill-opacity:1;fill-rule:nonzero;stroke:none"
       id="path12" /><text
       transform="matrix(1,0,0,-1,184.311,483)"
       style="font-style:normal;font-variant:normal;font-weight:100;font-stretch:normal;font-size:72px;font-family:Antonio;-inkscape-font-specification:'Antonio Thin';writing-mode:lr-tb;fill:#ffffff;fill-opacity:1;fill-rule:nonzero;stroke:none"
       id="text16"><tspan
         x="0 22.104 56.664001 83.232002 115.128 137.23199 170.20799"
         y="0"
         sodipodi:role="line"
         id="tspan14"
         style="font-style:normal;font-variant:normal;font-weight:600;font-stretch:normal;font-family:Antonio;-inkscape-font-specification:'Antonio Semi-Bold'">THEATRE</tspan></text><text
       transform="matrix(1,0,0,-1,397.935,483)"
       style="font-variant:normal;font-weight:normal;font-stretch:normal;font-size:72px;font-family:Anton;-inkscape-font-specification:Anton-Regular;writing-mode:lr-tb;fill:#ffffff;fill-opacity:1;fill-rule:nonzero;stroke:none"
       id="text20"><tspan
         x="0 51.264 86.255997 120.6 154.584 187.776 223.70399 258.69601"
         y="0"
         sodipodi:role="line"
         id="tspan18">WORKSHOP</tspan></text><text
       transform="matrix(1,0,0,-1,402.831,413.736)"
       style="font-variant:normal;font-weight:normal;font-stretch:normal;font-size:72px;font-family:Anton;-inkscape-font-specification:Anton-Regular;writing-mode:lr-tb;fill:#ff0000;fill-opacity:1;fill-rule:nonzero;stroke:none"
       id="text24"><tspan
         x="0 34.127998 69.120003 103.248 131.832 165.024 200.52 235.51199"
         y="0"
         sodipodi:role="line"
         id="tspan22">COULSDON</tspan></text><g
       id="g26"><g
         id="g28"
         clip-path="url(#clipPath32)"><g
           id="g34"
           transform="translate(830.6572,479)"><path
             d="m 0,0 c 0,-36.599 -29.669,-66.268 -66.269,-66.268 -36.598,0 -66.267,29.669 -66.267,66.268 0,36.599 29.669,66.268 66.267,66.268 C -29.669,66.268 0,36.599 0,0"
             style="fill:#1d1d1b;fill-opacity:1;fill-rule:nonzero;stroke:none"
             id="path36" /></g><g
           id="g38"
           transform="translate(830.6572,479)"><path
             d="m 0,0 c 0,-36.599 -29.669,-66.268 -66.269,-66.268 -36.598,0 -66.267,29.669 -66.267,66.268 0,36.599 29.669,66.268 66.267,66.268 C -29.669,66.268 0,36.599 0,0 Z"
             style="fill:none;stroke:#ffffff;stroke-width:2;stroke-linecap:butt;stroke-linejoin:miter;stroke-miterlimit:10;stroke-dasharray:none;stroke-opacity:1"
             id="path40" /></g><g
           id="g42"
           transform="translate(775.1309,511.7949)"><path
             d="m 0,0 c 0,-5.933 -4.81,-10.742 -10.742,-10.742 -5.933,0 -10.741,4.809 -10.741,10.742 0,5.932 4.808,10.742 10.741,10.742 C -4.81,10.742 0,5.932 0,0"
             style="fill:#ffffff;fill-opacity:1;fill-rule:nonzero;stroke:none"
             id="path44" /></g><g
           id="g46"
           transform="translate(771.4961,499.624)"><path
             d="M 0,0 24.738,21.355 10.706,-6.709 C 5.79,-16.54 6.097,-28.174 11.524,-37.732 L 27.709,-66.234 4.187,-45.699 c -6.47,5.649 -16.118,5.649 -22.587,0 l -23.523,-20.535 16.185,28.502 c 5.426,9.558 5.734,21.192 0.818,31.023 L -38.953,21.355 -14.215,0 C -10.132,-3.524 -4.083,-3.524 0,0"
             style="fill:#ffffff;fill-opacity:1;fill-rule:nonzero;stroke:none"
             id="path48" /></g></g></g></g></svg>
